<svg xmlns="http://www.w3.org/2000/svg" width="237.393" height="283.268" viewBox="0 0 237.393 283.268">
  <g id="Group_6067" data-name="Group 6067" transform="translate(0 0)">
    <ellipse id="Ellipse_204" data-name="Ellipse 204" cx="2.068" cy="0.635" rx="2.068" ry="0.635" transform="translate(233.22 273.605)" fill="#e8c5b2"/>
    <path id="Path_1531" data-name="Path 1531" d="M1621.854,880.01a1.386,1.386,0,0,1-.946-2.4c27.9-26.034,56.544-73.538,34.613-152.007l-.237-.846a1.386,1.386,0,0,1,2.67-.744l.236.844c2.846,10.182,9.51,34.028,7.777,62.937-2.173,36.237-16.7,67.137-43.168,91.842A1.388,1.388,0,0,1,1621.854,880.01Z" transform="translate(-1542.253 -723)" fill="#2a878d"/>
    <path id="Path_1532" data-name="Path 1532" d="M1715.651,901.783s6.927-1.492,15.736-3.642c0,0-2.245-6.076-.129-6.99,4.976-2.148,9.765,4.1,11.414,4.109,7.421.03,10.883-2.457,14.13-4.167-5.557-2.466-12.317-8.493-10.23-10.226,6.927-5.752,19.51,3.36,20.421,5.724,6.092-4.985,4.9-11.041,4.9-11.041l-1.4-4.268-8.726-6.247-60.937-28.359-5.063-.3c-10.2.662-3.25,14.286,5.6,27.594.65.978,10.348-3.621,13.07,1.627,1.5,2.883-10.051,2.91-9.527,3.705,1.9,2.878,3.762,5.78,5.441,8.633.83,1.41,8.846,1.011,10.3,5.541.781,2.434-4.986,4.763-9.061,6.333C1714.151,894.772,1715.817,898.98,1715.651,901.783Z" transform="translate(-1588.161 -797.103)" fill="#217277"/>
    <path id="Path_1533" data-name="Path 1533" d="M1716.21,871.992c17.742-21.87,61.832-7.58,65.229,3.557.429-12.85-29.343-18.29-32.538-21.1s-16.39-18.093-43.587-18.08C1714.229,836.946,1731.777,852.835,1716.21,871.992Z" transform="translate(-1597.709 -797.103)" fill="#8ac4c1"/>
    <path id="Path_1534" data-name="Path 1534" d="M1516.915,1078.035l1.814.044c.6.019,1.341.027,2.225.032s1.906.007,3.065-.007c2.316-.036,5.173-.12,8.518-.407a76.8,76.8,0,0,0,11.382-1.768,49.5,49.5,0,0,0,6.5-2.016,32.233,32.233,0,0,0,6.578-3.462,21.439,21.439,0,0,0,5.641-5.666,19.18,19.18,0,0,0,2.98-8.01,27.117,27.117,0,0,0-.42-9.161,38.957,38.957,0,0,0-1.269-4.653c-.129-.387-.267-.773-.407-1.16s-.3-.775-.455-1.151c-.319-.753-.658-1.513-1.041-2.256a45.9,45.9,0,0,0-5.7-8.547,72.226,72.226,0,0,0-7.51-7.753,124.973,124.973,0,0,0-18.578-13.515,200.525,200.525,0,0,0-21.828-11.414,242.681,242.681,0,0,0-24.271-9.375,181.625,181.625,0,0,0-26.283-6.6,82.619,82.619,0,0,0-13.726-1.218,32.627,32.627,0,0,0-6.756.684,13.782,13.782,0,0,0-3.065,1.041,8.055,8.055,0,0,0-1.288.8,5.012,5.012,0,0,0-.977,1.006,3.98,3.98,0,0,0-.588,1.2l-.046.162a.794.794,0,0,0-.037.152c-.012.064-.036.166-.037.2l-.016.126a3.3,3.3,0,0,0,0,.615,4.144,4.144,0,0,0,1.225,2.358,11.933,11.933,0,0,0,2.547,1.958,25.494,25.494,0,0,0,3.062,1.532,53.273,53.273,0,0,0,6.683,2.268c2.295.631,4.633,1.165,6.992,1.636a235.148,235.148,0,0,0,28.963,3.522c9.783.66,19.639.931,29.494.92s19.712-.318,29.512-.894c9.8-.559,19.548-1.391,29.176-2.541s19.138-2.617,28.431-4.523a193.736,193.736,0,0,0,27-7.366,91.2,91.2,0,0,0,12.391-5.5,41.82,41.82,0,0,0,10.481-7.743,23.119,23.119,0,0,0,1.989-2.441c.3-.425.585-.861.838-1.3.152-.251.243-.443.361-.658s.222-.447.315-.676a9.574,9.574,0,0,0,.689-5.662,12.619,12.619,0,0,0-2.523-5.271,24.944,24.944,0,0,0-4.334-4.278,53.456,53.456,0,0,0-10.548-6.237,102.973,102.973,0,0,0-11.239-4.337,182.642,182.642,0,0,0-22.3-5.547c-7.258-1.363-14.281-2.333-20.982-3.069s-13.081-1.245-19.086-1.59-11.633-.543-16.84-.642-9.993-.124-14.315-.085c-8.645.08-15.437.325-20.066.52s-7.1.349-7.1.349,2.462-.21,7.086-.535,11.411-.753,20.064-1.008c4.326-.133,9.119-.22,14.338-.227s10.865.1,16.894.34a311.136,311.136,0,0,1,40.345,4.059,177.124,177.124,0,0,1,22.633,5.327,105.282,105.282,0,0,1,11.535,4.318,55.784,55.784,0,0,1,11.1,6.421,27.412,27.412,0,0,1,4.815,4.669,15.156,15.156,0,0,1,3.073,6.326,11.805,11.805,0,0,1,.153,3.668,12.674,12.674,0,0,1-.955,3.536c-.114.283-.25.552-.379.826s-.3.576-.431.8c-.294.52-.614,1.011-.949,1.5a25.812,25.812,0,0,1-2.2,2.742,36.293,36.293,0,0,1-5.237,4.612,55.5,55.5,0,0,1-5.879,3.731,93.911,93.911,0,0,1-12.741,5.753c-4.392,1.636-8.9,3.043-13.468,4.3s-9.217,2.35-13.913,3.323c-9.391,1.946-18.978,3.441-28.672,4.621s-19.5,2.035-29.362,2.617c-9.861.561-19.776.845-29.692.84s-19.835-.3-29.7-.986c-4.933-.342-9.852-.792-14.744-1.393s-9.761-1.337-14.579-2.327c-2.409-.5-4.805-1.057-7.179-1.726a55.972,55.972,0,0,1-7.023-2.434,28.174,28.174,0,0,1-3.382-1.72,14.569,14.569,0,0,1-3.122-2.451,8.15,8.15,0,0,1-1.256-1.751,5.745,5.745,0,0,1-.653-3.38l.046-.318c.017-.115.031-.158.046-.24,0-.033.041-.2.068-.283l.077-.268a6.689,6.689,0,0,1,.992-1.993,7.672,7.672,0,0,1,1.51-1.543,10.684,10.684,0,0,1,1.747-1.071,16.373,16.373,0,0,1,3.664-1.232,34.708,34.708,0,0,1,7.319-.686,85.045,85.045,0,0,1,14.145,1.382,183.849,183.849,0,0,1,26.567,6.927,235.849,235.849,0,0,1,24.365,9.749,202.046,202.046,0,0,1,21.865,11.8,126.344,126.344,0,0,1,18.553,13.97,73.253,73.253,0,0,1,7.492,7.994,46.583,46.583,0,0,1,5.634,8.825c.375.767.705,1.548,1.021,2.337s.586,1.57.841,2.357a39.663,39.663,0,0,1,1.25,4.746,27.746,27.746,0,0,1,.347,9.375,19.733,19.733,0,0,1-3.136,8.211,21.774,21.774,0,0,1-5.821,5.737,32.644,32.644,0,0,1-6.7,3.436,49.784,49.784,0,0,1-6.56,1.962,77,77,0,0,1-11.433,1.655c-3.353.253-6.214.307-8.531.319-1.159,0-2.182,0-3.065-.025s-1.627-.03-2.225-.055C1517.531,1078.056,1516.915,1078.035,1516.915,1078.035Z" transform="translate(-1416.852 -857.566)" fill="#ffba55"/>
    <path id="Path_1535" data-name="Path 1535" d="M1803.468,1053.512c-.722-19.256-20.309-19.068-22.168-24.509-.957-2.8,6.209-6.875,15.152-1.2-3.972-9.8-11.927-14.4-24.07-17.731-6.2-1.7-14.729-3.477-18.463-4.551-2.407-.692-2.314-4.655.858-5.307-40.554-7.884-86.129,19.773-86.129,19.773,10.108,13.678,31.709,21.476,46.411,25.322-11.346-12.144-11.679-25.049-1.7-23.789,12.6,1.591,5.084,22.735,7.316,27.137,3.429,6.763,14.1,11.493,21.151,14.143,1.293-4.911-3.735-17.432-6.111-25.747-2.478-8.672,7.332-13.891,10.247.081,1.687,8.087-1.937,17.127,1.842,22.45,3.392,4.778,12.656,8.267,19.221,8.9-2.2-4.342-4.709-14.556,2.432-15.4,3.494-.412,9.475,4.552,5.389,18.3,3.061,5.739,15.06,8.4,21.45,12.743C1796.3,1084.126,1804.091,1070.1,1803.468,1053.512Zm-82.507-48.353c.1-3.638,23.819-4.883,25.118-1S1720.846,1009.336,1720.96,1005.159Zm37.985,42.017c-5.985-2.053-7.108-18.836-1.369-19.263C1766.341,1027.262,1764.931,1049.23,1758.946,1047.176Zm15.335-.377c-4.323.946-7.243-10.968-2.809-11.625C1775.347,1034.6,1778.6,1045.853,1774.28,1046.8Z" transform="translate(-1573.743 -903.263)" fill="#217277"/>
    <path id="Path_1536" data-name="Path 1536" d="M1804.581,1049.987c-.722-19.256-20.309-19.068-22.168-24.509-.957-2.8,6.725-3.394,15.668,2.279-3.973-9.8-12.444-17.885-24.587-21.212-6.2-1.7-16.108-.633-19.842-1.706-2.407-.692-.419-4.019,2.753-4.671-40.554-7.884-85.265,19.266-85.265,19.266,10.108,13.678,32.934,18.618,45.547,25.829-11.346-12.144-12.2-28.53-2.216-27.27,12.6,1.591,5.084,22.735,7.315,27.137,3.429,6.763,14.1,11.493,21.151,14.143,1.293-4.911-4.287-17.382-6.662-25.7-2.478-8.672,10.228-13.327,13.143.645,1.687,8.087-1.883,19.22.951,22.993,3.519,4.685,12.787,9.244,18.285,11.224-2.2-4.342-6.732-19.446,1.916-18.879,5.537.363,9.991,8.033,5.906,21.778,4.018,4.442,14.152,5.719,20.933,9.262C1797.411,1080.6,1805.2,1066.573,1804.581,1049.987Zm-84.648-45.9c.1-3.638,26.6-4.921,27.9-1.041S1719.819,1008.261,1719.934,1004.083Zm40.642,43.049c-5.985-2.053-7.807-21.632-1.979-21.55C1768.439,1025.723,1766.561,1049.187,1760.576,1047.133Zm15.335-.378c-4.323.946-7.587-12.607-3.154-13.265C1776.631,1032.917,1780.233,1045.81,1775.91,1046.755Z" transform="translate(-1575.373 -903.221)" fill="#b4d2d0"/>
    <path id="Path_1537" data-name="Path 1537" d="M1671.14,1046.588c18.1,16.4,32.851,19.618,45.547,25.829-11.346-12.144-12.2-28.53-2.216-27.27,12.6,1.591,5.084,22.735,7.315,27.137,3.428,6.763,14.1,11.493,21.151,14.143,1.292-4.911-4.287-17.382-6.663-25.7-2.478-8.672,10.228-13.328,13.143.645,1.687,8.087-1.883,19.22.951,22.993,3.519,4.685,12.787,9.244,18.285,11.225-2.2-4.342-6.732-19.447,1.916-18.879,5.537.363,9.991,8.033,5.906,21.778,4.018,4.442,14.153,5.719,20.934,9.263C1801.681,1083.2,1763.609,1020.268,1671.14,1046.588Zm101.614,14.057c3.876-.575,7.477,12.319,3.154,13.265S1768.32,1061.3,1772.754,1060.644Zm-14.157-7.908c9.84.139,7.964,23.6,1.979,21.55S1752.771,1052.653,1758.6,1052.736Z" transform="translate(-1575.372 -930.373)" fill="#b4d2d0"/>
    <path id="Path_1538" data-name="Path 1538" d="M1919.885,1039.22l-.441-.314c-.287-.205-.713-.5-1.263-.862a43.3,43.3,0,0,0-4.743-2.681c-1.014-.492-2.132-.982-3.33-1.461-1.2-.464-2.486-.919-3.832-1.322s-2.752-.771-4.2-1.059c-.719-.163-1.453-.277-2.186-.409-.736-.116-1.477-.221-2.219-.313-1.486-.166-2.976-.3-4.447-.341l-1.1-.038h-1.087c-.72-.01-1.432.016-2.131.044s-1.386.065-2.057.117l-1,.072-.969.106c-1.277.12-2.474.319-3.58.476l-1.579.289-.732.134-.687.15c-.886.2-1.664.349-2.293.525l-1.984.513-.027.007a.8.8,0,1,1-.4-1.554l.026-.006,2.044-.456c.647-.158,1.448-.281,2.359-.458l.706-.129.752-.112,1.62-.241c1.135-.124,2.362-.286,3.668-.364l.991-.074,1.018-.04c.686-.03,1.386-.057,2.1-.049s1.438-.007,2.17.027l1.106.037,1.115.076c1.493.091,3,.278,4.5.5q1.124.178,2.239.393c.739.159,1.478.3,2.2.488,1.453.341,2.86.769,4.208,1.212s2.624.954,3.821,1.461c1.191.523,2.3,1.054,3.3,1.582a43.465,43.465,0,0,1,4.669,2.848c.539.381.955.69,1.235.9Z" transform="translate(-1707.31 -923.24)" fill="#479da2"/>
    <path id="Path_1539" data-name="Path 1539" d="M1976.742,1089.141c0-.009.117.118.318.264a10.268,10.268,0,0,0,.975.6c.9.506,2.241,1.179,3.823,2.037.79.434,1.645.9,2.531,1.437s1.813,1.106,2.746,1.741,1.872,1.325,2.809,2.05c.918.749,1.845,1.518,2.706,2.36.444.406.852.85,1.273,1.276s.805.885,1.19,1.334a29.529,29.529,0,0,1,2.078,2.784l.458.7.413.71c.133.236.278.462.4.7l.355.7c.244.455.443.916.634,1.362l.285.656.236.647c.33.838.538,1.637.749,2.336.172.709.312,1.33.419,1.843.167,1.034.261,1.625.261,1.625s-.107-.589-.3-1.618c-.117-.51-.271-1.126-.457-1.83-.225-.693-.449-1.484-.794-2.311q-.122-.313-.248-.638l-.3-.646c-.2-.439-.406-.893-.658-1.34l-.367-.687c-.124-.232-.272-.453-.409-.685l-.424-.7-.469-.685a29.134,29.134,0,0,0-2.115-2.713q-.585-.655-1.2-1.3c-.426-.413-.837-.843-1.285-1.235-.868-.815-1.8-1.556-2.723-2.276-.941-.7-1.877-1.371-2.82-1.969s-1.862-1.162-2.753-1.665-1.746-.958-2.538-1.372c-1.591-.82-2.937-1.461-3.875-1.962a10.073,10.073,0,0,1-1.107-.656c-.253-.182-.34-.277-.348-.278a.4.4,0,1,1,.531-.6Z" transform="translate(-1774.681 -962.247)" fill="#479da2"/>
    <path id="Path_1540" data-name="Path 1540" d="M1590.083,1071.612s.057-.185.167-.544l.2-.667c.079-.263.175-.571.3-.932l.409-1.2.53-1.405c.19-.507.425-1.04.659-1.615s.524-1.169.809-1.805a52.147,52.147,0,0,1,5.158-8.626,52.984,52.984,0,0,1,8.973-9.408,63.653,63.653,0,0,1,12.939-8.168,85.723,85.723,0,0,1,15.994-5.72,114.8,114.8,0,0,1,17.843-3c1.532-.145,3.073-.254,4.615-.333s3.1-.138,4.659-.171c3.112-.063,6.24-.015,9.363.152a100.076,100.076,0,0,1,18.454,2.663,75.726,75.726,0,0,1,16.92,6.292,66.705,66.705,0,0,1,7.381,4.476,64.931,64.931,0,0,1,6.441,5.167,65.627,65.627,0,0,1,9.862,11.4,76.94,76.94,0,0,1,6.254,11.073,91.5,91.5,0,0,1,3.6,9.107c.444,1.283.781,2.447,1.1,3.452.285,1.015.538,1.874.726,2.576l.56,2.156-.6-2.144c-.2-.7-.472-1.552-.778-2.559-.336-1-.7-2.153-1.167-3.424a91.34,91.34,0,0,0-3.775-9,76.428,76.428,0,0,0-6.437-10.868,64.816,64.816,0,0,0-9.972-11.056,63.917,63.917,0,0,0-6.44-4.952,65.522,65.522,0,0,0-7.335-4.244,74.229,74.229,0,0,0-16.714-5.825,98.2,98.2,0,0,0-18.162-2.238c-3.071-.1-6.146-.084-9.2.041-1.528.064-3.059.147-4.57.262s-3.038.239-4.543.389a112.377,112.377,0,0,0-17.437,3.069,83.141,83.141,0,0,0-15.466,5.661,60.955,60.955,0,0,0-12.33,7.911,50.162,50.162,0,0,0-8.429,8.971,49.23,49.23,0,0,0-4.805,8.175,51.345,51.345,0,0,0-2.222,5.679c-.112.325-.206.629-.284.9l-.2.669-.163.545a1.505,1.505,0,1,1-2.884-.863Z" transform="translate(-1522.349 -922.344)" fill="#479da2"/>
    <path id="Path_1541" data-name="Path 1541" d="M1678.863,1532.36h-62.282l-.386,2.858h62.668a1.415,1.415,0,0,0,1.415-1.415v-.029A1.413,1.413,0,0,0,1678.863,1532.36Z" transform="translate(-1539.46 -1252.003)" fill="#e8c5b2"/>
    <path id="Path_1542" data-name="Path 1542" d="M1724.1,1432.8h-30.626v2.858H1724.1a1.415,1.415,0,0,0,1.415-1.415v-.029A1.417,1.417,0,0,0,1724.1,1432.8Z" transform="translate(-1589.971 -1186.93)" fill="#e8c5b2"/>
    <path id="Path_1543" data-name="Path 1543" d="M1435.406,1153.27l-40.736,63.6,2.792,1.06,41.175-63.432Z" transform="translate(-1394.67 -1004.227)" fill="#c67a56"/>
    <path id="Path_1544" data-name="Path 1544" d="M1693.638,1226.97l-6.5,73.331,2.168.824,7.583-72.919Z" transform="translate(-1585.83 -1052.398)" fill="#5e1212"/>
    <path id="Path_1545" data-name="Path 1545" d="M1530.332,1208.931l-.466-.177a31.541,31.541,0,0,1-20.09-33.3l2.474-20.274,66.859,25.446-11.632,16.788A31.542,31.542,0,0,1,1530.332,1208.931Z" transform="translate(-1469.751 -1005.477)" fill="#fff"/>
    <path id="Path_1546" data-name="Path 1546" d="M1571.042,1210.97l-7.663,11.06a31.542,31.542,0,0,1-37.146,11.515l-.466-.177a31.6,31.6,0,0,1-3.958-1.833,31.487,31.487,0,0,0,16.074,13.682l.466.177a31.54,31.54,0,0,0,37.145-11.515l11.632-16.788Z" transform="translate(-1477.768 -1041.94)" fill="#e8c5b2"/>
    <path id="Path_1547" data-name="Path 1547" d="M1523.321,1163.07l56.243,21.406,2.989,1.943-11.19,16.15a31.634,31.634,0,0,1-3.393,4.11c1.386-23.907-47.131-39.012-52.481-41.047Z" transform="translate(-1473.637 -1010.633)" fill="#d49c81"/>
    <path id="Path_1548" data-name="Path 1548" d="M1576.668,1185.357l-72.618-27.639,2.847-4.448,70.325,26.766Z" transform="translate(-1466.161 -1004.227)" fill="#c67a56"/>
    <path id="Path_1549" data-name="Path 1549" d="M1611.976,1321.933l15.3-114.639-3.294-1.254L1609.7,1321.067Z" transform="translate(-1535.215 -1038.718)" fill="#c67a56"/>
    <ellipse id="Ellipse_205" data-name="Ellipse 205" cx="1.386" cy="1.386" rx="1.386" ry="1.386" transform="translate(142.897 252.472)" fill="#5e1212"/>
    <ellipse id="Ellipse_206" data-name="Ellipse 206" cx="1.386" cy="1.386" rx="1.386" ry="1.386" transform="translate(232.752 271.96)" fill="#5e1212"/>
    <ellipse id="Ellipse_207" data-name="Ellipse 207" cx="8.149" cy="2.503" rx="8.149" ry="2.503" transform="translate(165.258 277.164)" fill="#e8c5b2"/>
    <ellipse id="Ellipse_208" data-name="Ellipse 208" cx="5.461" cy="5.461" rx="5.461" ry="5.461" transform="translate(161.772 279.089) rotate(-67.5)" fill="#5e1212"/>
    <ellipse id="Ellipse_209" data-name="Ellipse 209" cx="1.386" cy="1.386" rx="1.386" ry="1.386" transform="translate(10.454 271.96)" fill="#5e1212"/>
    <ellipse id="Ellipse_210" data-name="Ellipse 210" cx="1.386" cy="1.386" rx="1.386" ry="1.386" transform="translate(56.15 216.194)" fill="#5e1212"/>
    <ellipse id="Ellipse_211" data-name="Ellipse 211" cx="3.104" cy="3.104" rx="3.104" ry="3.104" transform="translate(198.25 238.049) rotate(-9.218)" fill="#5e1212"/>
    <ellipse id="Ellipse_212" data-name="Ellipse 212" cx="2.985" cy="2.985" rx="2.985" ry="2.985" transform="translate(117.522 146.058)" fill="#5e1212"/>
    <ellipse id="Ellipse_213" data-name="Ellipse 213" cx="2.985" cy="2.985" rx="2.985" ry="2.985" transform="translate(122.598 230.373) rotate(-67.5)" fill="#5e1212"/>
    <path id="Path_1550" data-name="Path 1550" d="M1586.99,1139.89l53.557,20.384s2.8-4.171-7.937-7.578S1603.644,1145.768,1586.99,1139.89Z" transform="translate(-1520.372 -995.482)" fill="#5e1212"/>
    <path id="Path_1551" data-name="Path 1551" d="M1679.524,916.509l-.759.843-.91,1.013-1.179,1.378c-.446.509-.918,1.106-1.441,1.742s-1.072,1.339-1.658,2.091c-1.174,1.5-2.443,3.238-3.8,5.154-1.333,1.932-2.761,4.037-4.178,6.324-1.435,2.275-2.873,4.722-4.3,7.287s-2.812,5.262-4.169,8.026-2.616,5.629-3.83,8.508c-1.181,2.894-2.313,5.806-3.311,8.712s-1.914,5.787-2.679,8.606c-.8,2.811-1.428,5.562-2,8.172-.248,1.312-.523,2.583-.729,3.822s-.429,2.432-.569,3.587c-.334,2.3-.558,4.422-.72,6.3-.069.94-.134,1.82-.195,2.634-.033.814-.064,1.562-.092,2.238q-.021.507-.04.958,0,.451-.007.845c0,.524-.007.971-.009,1.332-.005.723-.008,1.109-.008,1.109v.075a2.146,2.146,0,1,1-4.292-.03c0-.011,0-.033,0-.044s.011-.4.032-1.16l.039-1.393q.013-.411.026-.883.029-.47.062-1c.044-.7.093-1.483.146-2.331.08-.845.167-1.759.26-2.736.209-1.95.488-4.143.885-6.519.172-1.193.437-2.418.667-3.695s.55-2.579.835-3.926c.643-2.677,1.353-5.492,2.232-8.358.847-2.876,1.851-5.807,2.931-8.757s2.3-5.9,3.57-8.826c1.3-2.911,2.657-5.8,4.088-8.587s2.9-5.506,4.415-8.077,3.019-5.035,4.527-7.318c1.49-2.295,2.988-4.406,4.386-6.341,1.421-1.92,2.751-3.66,3.98-5.165.613-.753,1.183-1.46,1.735-2.1s1.037-1.231,1.513-1.751l1.248-1.4.933-.995.777-.827a1.073,1.073,0,0,1,1.578,1.454Z" transform="translate(-1554.14 -848.307)" fill="#8ac4c1"/>
    <path id="Path_1552" data-name="Path 1552" d="M1581.136,1153.779l-73.816-28.092,2.286-13.606,78.87,30.018Z" transform="translate(-1468.298 -977.305)" fill="#fff"/>
    <path id="Path_1553" data-name="Path 1553" d="M1849.525,1230.47l6.89-1.334-6.89-1.334-1.441-11.3-1.444,11.3-6.89,1.334,6.89,1.334,1.444,11.3Z" transform="translate(-1685.578 -1045.555)" fill="#ffba55"/>
  </g>
</svg>
