<svg xmlns="http://www.w3.org/2000/svg" width="529.843" height="470.312" viewBox="0 0 529.843 470.312">
  <g id="Group_6066" data-name="Group 6066" transform="translate(0 0)">
    <path id="Path_1389" data-name="Path 1389" d="M803.282,623.078l1.359.184c.886.128,2.184.27,3.842.569l2.744.462c1,.17,2.063.39,3.209.605s2.365.438,3.641.715l4.023.848c1.4.285,2.856.627,4.362.967s3.064.687,4.66,1.069c3.186.784,6.558,1.564,10.018,2.482l5.276,1.37,5.386,1.477,2.726.753,2.732.8,5.49,1.6,5.462,1.691,2.717.841c.9.283,1.8.589,2.688.88l5.3,1.751c.877.281,1.738.591,2.595.894l2.55.9c1.685.6,3.35,1.17,4.963,1.772l4.715,1.8c3.078,1.132,5.926,2.364,8.573,3.451,2.66,1.058,5.026,2.2,7.148,3.147l2.964,1.347,2.469,1.245,4.682,2.364-4.708-2.311-2.482-1.216-2.979-1.313c-2.131-.926-4.508-2.036-7.178-3.063-2.658-1.056-5.515-2.254-8.6-3.35l-4.73-1.743c-1.618-.583-3.289-1.131-4.978-1.714l-2.557-.873c-.859-.294-1.722-.593-2.6-.864l-5.315-1.689c-.9-.281-1.789-.576-2.694-.848l-2.724-.809-5.474-1.627-5.5-1.535-2.737-.763-2.731-.721-5.394-1.413-5.282-1.308c-3.464-.877-6.838-1.617-10.027-2.363-1.6-.363-3.156-.685-4.661-1.013s-2.959-.647-4.362-.916l-4.02-.8c-1.275-.261-2.494-.458-3.634-.671s-2.209-.409-3.2-.565l-2.713-.426c-1.63-.277-2.943-.406-3.828-.523l-1.36-.169h0a.693.693,0,0,1,.17-1.375S803.281,623.078,803.282,623.078Z" transform="translate(-677.864 -461.388)" fill="#f4c589"/>
    <path id="Path_1390" data-name="Path 1390" d="M921.469,678c-1.6,3.27-11.432,6.127-11.432,6.127L909,671.425S924.743,671.319,921.469,678Z" transform="translate(-747.474 -492.992)" fill="#113a53"/>
    <path id="Path_1391" data-name="Path 1391" d="M825.653,524.767l1,.533c.672.369,1.564.809,2.734,1.39l2,.936,2.395,1.046c1.726.716,3.685,1.511,5.864,2.282,2.169.8,4.56,1.554,7.1,2.317,1.279.348,2.586.746,3.941,1.071l2.051.513,2.1.471c.706.167,1.423.3,2.146.442s1.449.293,2.184.415c1.471.24,2.96.5,4.471.684,1.508.222,3.034.353,4.568.507.767.073,1.537.1,2.308.158l1.157.074c.386.023.772.024,1.158.036l2.319.06,2.313-.033c.385-.008.771-.005,1.155-.022l1.149-.066c.764-.05,1.53-.076,2.288-.143,1.511-.168,3.023-.279,4.492-.54.736-.123,1.477-.207,2.2-.359l2.148-.449c.716-.131,1.4-.338,2.1-.519s1.377-.355,2.045-.562l1.969-.656.969-.323.933-.378,1.831-.742c.305-.113.59-.263.878-.4l.856-.415c.565-.277,1.126-.539,1.667-.815l1.551-.89c.5-.3,1.013-.563,1.483-.868l1.361-.917,1.3-.872,1.159-.911,1.089-.856.516-.407.466-.427,1.678-1.536a17.989,17.989,0,0,0,1.292-1.3l.93-.99.776-.826-.72.874-.866,1.051a18.11,18.11,0,0,1-1.21,1.392l-1.586,1.655-.443.462-.493.444-1.043.936-1.115,1-1.254.969-1.324,1.022c-.458.341-.957.646-1.45.982l-1.525,1.012c-.534.318-1.089.623-1.648.944l-.849.482c-.286.161-.57.334-.874.47l-1.828.884-.935.451-.972.4-1.984.809c-.674.259-1.371.475-2.068.717s-1.4.493-2.128.677l-2.19.609c-.736.205-1.492.343-2.246.52-1.507.369-3.056.588-4.614.863-.78.121-1.569.2-2.358.3l-1.187.146c-.4.043-.795.067-1.193.1l-2.4.19-2.4.1c-.4.013-.8.038-1.2.041l-1.2,0c-.8,0-1.6.015-2.4-.008-1.6-.055-3.192-.088-4.766-.216-1.579-.085-3.136-.256-4.68-.406-.771-.077-1.532-.19-2.291-.282s-1.513-.188-2.255-.313l-2.212-.346-2.161-.393c-1.43-.246-2.811-.568-4.165-.844-2.692-.619-5.232-1.245-7.551-1.928-2.326-.656-4.435-1.354-6.3-1.99l-2.6-.94-2.2-.858c-1.34-.558-2.42-1.012-3.064-1.314l-1.032-.466a3.293,3.293,0,1,1,2.711-6c.063.028.124.059.185.09Z" transform="translate(-689.831 -394.33)" fill="#5e1212"/>
    <path id="Path_1392" data-name="Path 1392" d="M825.8,537.871l.8.6c.546.419,1.222.908,2.167,1.566s2.131,1.43,3.527,2.256,3,1.715,4.809,2.607a96.448,96.448,0,0,0,12.888,5.155c4.876,1.592,10.218,2.989,15.61,4.339s10.836,2.682,15.843,4.384c1.25.43,2.471.88,3.653,1.361s2.32,1.006,3.408,1.557a34.093,34.093,0,0,1,3.078,1.785,25.021,25.021,0,0,1,2.653,2.013,20.906,20.906,0,0,1,2.145,2.183c.3.384.608.742.862,1.126l.388.557.345.56a17.393,17.393,0,0,1,1.793,4.054,20.908,20.908,0,0,1,.629,2.764l.138.991-.211-.976a20.731,20.731,0,0,0-.824-2.687,16.943,16.943,0,0,0-2.034-3.814l-.371-.514-.412-.506c-.269-.349-.593-.67-.9-1.015a20,20,0,0,0-2.2-1.926,23.822,23.822,0,0,0-2.663-1.726,32.741,32.741,0,0,0-3.062-1.485c-1.081-.45-2.212-.866-3.384-1.252s-2.388-.728-3.632-1.055c-4.984-1.294-10.444-2.2-15.927-3.16s-11.006-1.962-16.156-3.23a101.5,101.5,0,0,1-13.924-4.414c-2-.811-3.81-1.641-5.394-2.426s-2.936-1.541-4.04-2.181-2.02-1.22-2.535-1.56l-.84-.543a3.293,3.293,0,1,1,3.575-5.531C825.662,537.774,825.733,537.825,825.8,537.871Z" transform="translate(-689.64 -405.264)" fill="#5e1212"/>
    <path id="Path_1393" data-name="Path 1393" d="M809.47,336.893l1,.676c.16.107.351.241.538.361l.608.387c.221.139.45.292.71.45l.839.5a46.545,46.545,0,0,0,4.388,2.281,40.132,40.132,0,0,0,6,2.146,36.8,36.8,0,0,0,7.434,1.188,41.066,41.066,0,0,0,8.5-.467,61.653,61.653,0,0,0,9.076-2.2c3.077-.968,6.182-2.143,9.331-3.318a92.427,92.427,0,0,1,9.679-3.19,30.28,30.28,0,0,1,5.083-.843,18.965,18.965,0,0,1,2.583-.024,16.07,16.07,0,0,1,2.549.336c.214.049.4.086.636.145.194.055.365.1.576.163.419.126.808.255,1.2.4a16.969,16.969,0,0,1,2.231,1.032,15.563,15.563,0,0,1,3.734,2.9,15.07,15.07,0,0,1,2.532,3.641,15.67,15.67,0,0,1,1.312,3.88,17.742,17.742,0,0,1-.067,7.018,21.573,21.573,0,0,1-1.733,5.058,25.217,25.217,0,0,1-1.7,2.968c-.219.328-.39.575-.51.74l-.178.251.159-.264c.107-.173.26-.432.452-.774a24.975,24.975,0,0,0,1.459-3.059,21.042,21.042,0,0,0,1.319-5.042,16.752,16.752,0,0,0-.422-6.608,13.686,13.686,0,0,0-3.932-6.488,13.527,13.527,0,0,0-3.426-2.27,14.685,14.685,0,0,0-1.99-.745c-.342-.1-.7-.191-1.031-.265-.165-.039-.375-.077-.561-.115l-.517-.083a20.2,20.2,0,0,0-8.93,1.027,89.578,89.578,0,0,0-9.121,3.617c-3.06,1.35-6.153,2.735-9.31,3.936a66.182,66.182,0,0,1-9.592,2.923,46.18,46.18,0,0,1-9.517,1.078,42.393,42.393,0,0,1-8.641-.865,46.146,46.146,0,0,1-7.047-2.064,52.839,52.839,0,0,1-5.143-2.3l-.981-.508c-.309-.164-.6-.333-.87-.482l-.75-.42-.575-.338-1.036-.616a3.41,3.41,0,0,1,3.485-5.861C809.355,336.818,809.418,336.858,809.47,336.893Z" transform="translate(-678.943 -272.975)" fill="#5e1212"/>
    <path id="Path_1394" data-name="Path 1394" d="M910.007,368.907l.279.035.342.043.22.027c.083.012.161.019.231.022a23.441,23.441,0,0,0,2.791.061,40.865,40.865,0,0,0,10.4-1.926,53.737,53.737,0,0,0,6.7-2.6,55.4,55.4,0,0,0,7.04-3.938,57.121,57.121,0,0,0,13.028-11.813c.236-.294.483-.581.709-.883l.68-.905c.225-.3.458-.6.676-.908l.643-.93.641-.93.6-.952.6-.95c.174-.289.385-.657.532-.962a24.388,24.388,0,0,0,1.566-4.066,40,40,0,0,0,.988-4.2,55,55,0,0,0,.832-8.164,63.971,63.971,0,0,0-.205-7.375c-.191-2.281-.484-4.362-.81-6.195s-.676-3.421-1.009-4.717c-.157-.651-.317-1.227-.457-1.727s-.259-.927-.366-1.269l-.319-1.053.351,1.043c.117.339.255.76.406,1.258s.333,1.068.511,1.715c.373,1.288.772,2.868,1.158,4.7s.743,3.911,1.007,6.2a64.415,64.415,0,0,1,.437,7.432,55.839,55.839,0,0,1-.588,8.311,40.983,40.983,0,0,1-.88,4.336,25.375,25.375,0,0,1-1.52,4.33c-.17.379-.331.669-.529,1.037l-.562,1L955.568,345l-.605.985-.608.987c-.207.327-.429.644-.643.967l-.649.965c-.217.322-.455.629-.681.945a59.279,59.279,0,0,1-12.867,12.947,58.222,58.222,0,0,1-7.171,4.519,56.986,56.986,0,0,1-6.959,3.132,44.624,44.624,0,0,1-11.252,2.685,26.885,26.885,0,0,1-3.424.094c-.109,0-.2-.006-.274-.013l-.221-.016-.344-.025-.281-.02a2.131,2.131,0,1,1,.3-4.251l.1.01Z" transform="translate(-746.567 -251.944)" fill="#5e1212"/>
    <path id="Path_1395" data-name="Path 1395" d="M979.473,708.143c-.879-2.386-5.253-5.311-5.253-5.311-12.223-6.015-40.824-2.214-58.357-20.6C915.862,712.023,974.565,719.583,979.473,708.143Z" transform="translate(-751.961 -500.059)" fill="#67a4c3"/>
    <path id="Path_1396" data-name="Path 1396" d="M981.947,716.846h0c-38.277,2.953-54.255-10.417-60-21.294l-2.3,2.8C928.336,721.918,977.475,727.271,981.947,716.846Z" transform="translate(-754.435 -508.762)" fill="#376f92"/>
    <path id="Path_1397" data-name="Path 1397" d="M888.808,475.845l.776.262.932.315.591.2.325.11.319.1c.869.248,1.9.6,3.165.892l.969.245c.332.076.673.138,1.025.211l1.082.22,1.128.171c.773.137,1.567.193,2.4.276.415.045.828.037,1.254.06l.643.025.644-.015a21.75,21.75,0,0,0,5.35-.713,23.1,23.1,0,0,0,5.427-2.266,52.95,52.95,0,0,0,5.4-3.648c1.818-1.349,3.7-2.763,5.688-4.005a28.314,28.314,0,0,1,6.277-2.966c.531-.191,1.08-.316,1.614-.458l.4-.1.05-.013s.117-.03.078-.019l.024,0,.1-.017.192-.034c.263-.042.495-.095.78-.128l.876-.084c.293-.036.559-.011.836-.019a13.21,13.21,0,0,1,1.613.1,11.833,11.833,0,0,1,5.454,2.164,12.145,12.145,0,0,1,3.219,3.623l.473.921c.072.15.159.288.213.439l.167.439a11.886,11.886,0,0,1,.54,1.584c.125.488.257.917.333,1.3s.119.71.163.975l.135.808-.228-.787-.273-.94c-.12-.366-.3-.772-.476-1.232a11.4,11.4,0,0,0-.7-1.467l-.208-.4c-.069-.136-.168-.259-.252-.393l-.546-.814a11.08,11.08,0,0,0-3.289-2.939,10.181,10.181,0,0,0-4.875-1.308,11.5,11.5,0,0,0-2.668.3c-.221.05-.487.141-.73.21l-.187.056-.094.028-.024.007c-.055.015.049-.012.03-.007l-.043.017-.346.135c-.461.184-.932.348-1.383.575a25.245,25.245,0,0,0-5.253,3.287c-1.673,1.339-3.276,2.862-4.944,4.435a57.516,57.516,0,0,1-5.367,4.609,28.616,28.616,0,0,1-6.327,3.554,27.91,27.91,0,0,1-6.673,1.718l-.806.112-.792.065c-.523.036-1.046.1-1.55.108-1.009.023-1.994.062-2.918.012l-1.367-.047-1.288-.105c-.419-.036-.83-.065-1.225-.107l-1.14-.147c-1.47-.165-2.78-.433-3.854-.616l-.388-.071-.336-.071-.611-.129-.962-.2-.8-.169h0a4.268,4.268,0,1,1,1.766-8.35A4.607,4.607,0,0,1,888.808,475.845Z" transform="translate(-730.596 -357.7)" fill="#5e1212"/>
    <path id="Path_1398" data-name="Path 1398" d="M658.943,274.043c-42.285,28.616-26.2,98.473,27.082,100.145,29.522.927,51.819-17.979,64.621-31.42,16.2-17,34.741-24.142,44.174-4.831,5.112-17.753-5.038-30.386-14.665-32.881-21.178-5.491-62.351,16.251-78.774,0Z" transform="translate(-568.288 -233.261)" fill="#5e1212"/>
    <ellipse id="Ellipse_199" data-name="Ellipse 199" cx="2.198" cy="2.198" rx="2.198" ry="2.198" transform="translate(129.872 85.847)" fill="#e79329"/>
    <path id="Path_1399" data-name="Path 1399" d="M823.966,422.673a2.2,2.2,0,1,1,2.2,2.2A2.2,2.2,0,0,1,823.966,422.673Z" transform="translate(-691.896 -328.97)" fill="#e79329"/>
    <path id="Path_1400" data-name="Path 1400" d="M1295.658,761.048c-2.339.483,18.458,11.891,13.121,15.262-6.266,3.958-15.457-13.078-17.4-12.45-7.632,2.473-16.254,4.4-23.179,10.214-.516.433,9.609,5.739,15.594,9.985,9.422,6.684-.577,12.982-4.679,5.445-3-5.506-8.719-11.816-14.511-10.68-5.97,4.774-12.168,8.216-17.125,13.631-.661.722,18.727,1.245,16.28,7.1-1.566,3.751-18.367-2.115-18.765-1.657-14.775,17.031-23.7,31.3-22.753,31.87,1.113.676,15.325-2.02,20.437-4.373,7.018-3.231,10.094-4.429,15.71-8.122,34.793-17.726,81.9-4.737,81.9-4.737S1349.331,749.958,1295.658,761.048Zm-60.851,55.576c.231-5.311,24.247-11.2,25.056-5.427S1234.5,823.646,1234.807,816.623Zm75.825-13.723c-2.3,1.556-7.82-2.583-12.323-9.246s-6.286-13.325-3.983-14.882,7.82,2.583,12.323,9.246S1312.936,801.344,1310.632,802.9Z" transform="translate(-952.17 -550.71)" fill="#217277"/>
    <path id="Path_1401" data-name="Path 1401" d="M1294.479,760.986c-2.339.483,17.787,9.986,12.449,13.357-6.266,3.958-15.457-13.078-17.4-12.45a67.073,67.073,0,0,0-22.508,12.12c-.516.433,8.938,3.834,14.923,8.08,9.422,6.684-.577,12.982-4.679,5.445-3-5.505-8.719-11.816-14.511-10.68a147.129,147.129,0,0,0-16.453,15.536c-.661.722,18.056-.66,15.608,5.2-1.566,3.751-18.368-2.115-18.764-1.657-14.775,17.031-23.65,33.651-22.706,34.224,1.113.676,15.253.54,20.364-1.814,7.018-3.231,10.791-7.437,16.407-11.13,34.792-17.726,82.035-6.431,82.035-6.431S1348.153,749.9,1294.479,760.986Zm-61.519,53.671c.231-5.311,24.248-11.2,25.056-5.427S1232.652,821.679,1232.96,814.657Zm75.822-13.723c-2.3,1.556-7.82-2.583-12.323-9.246s-6.286-13.325-3.984-14.882,7.82,2.583,12.323,9.246S1311.085,799.378,1308.782,800.934Z" transform="translate(-950.991 -550.648)" fill="#75bdb9"/>
    <path id="Path_1403" data-name="Path 1403" d="M1525.749,897.205l1.146.434c.375.144.833.31,1.379.528l1.889.786c.708.294,1.463.661,2.3,1.039s1.712.854,2.663,1.327l1.44.8c.5.273,1,.557,1.508.88l1.565.968,1.593,1.091a51.734,51.734,0,0,1,6.53,5.458,47.764,47.764,0,0,1,6,7.4,50.913,50.913,0,0,1,4.7,9.015,66.972,66.972,0,0,1,3.035,10l.505,2.569.126.642.1.645.191,1.289c.288,1.715.426,3.434.608,5.138.092.852.115,1.7.175,2.547.042.846.123,1.687.132,2.523s.036,1.667.053,2.492q.013.619.026,1.234-.009.613-.019,1.222c-.033,1.622-.026,3.22-.129,4.776-.086,1.557-.132,3.085-.277,4.561q-.092,1.109-.182,2.187c-.059.718-.115,1.426-.2,2.118-.158,1.385-.311,2.724-.458,4.009-.168,1.281-.354,2.505-.518,3.671l-.244,1.7c-.082.552-.181,1.083-.266,1.6l-.494,2.9q-.114.671-.219,1.286l-.229,1.166-.911,4.64a2.078,2.078,0,1,1-4.079-.8s0-.01,0-.015l.012-.059s.346-1.655.953-4.55q.114-.543.24-1.143t.231-1.26c.161-.876.335-1.824.521-2.836.09-.506.195-1.028.282-1.567l.26-1.665c.175-1.14.373-2.337.553-3.59q.239-1.882.5-3.913c.095-.676.157-1.365.224-2.064s.136-1.41.2-2.13c.161-1.44.222-2.922.326-4.436.121-1.514.132-3.061.185-4.635q.016-.59.033-1.185,0-.594-.01-1.193-.01-1.2-.02-2.411c0-.81-.067-1.618-.1-2.434-.048-.814-.059-1.638-.137-2.456-.155-1.636-.265-3.294-.521-4.934l-.167-1.236-.083-.619-.113-.613-.45-2.454a63.645,63.645,0,0,0-2.748-9.492,47.634,47.634,0,0,0-4.289-8.491,44.585,44.585,0,0,0-5.5-6.97,48.692,48.692,0,0,0-6.064-5.2l-1.491-1.05-1.472-.936c-.473-.313-.953-.589-1.422-.854l-1.36-.78c-.9-.462-1.735-.924-2.53-1.3s-1.524-.737-2.19-1.023l-1.779-.768c-.527-.218-.995-.394-1.364-.542l-1.14-.449a1.385,1.385,0,0,1,1-2.585Z" transform="translate(-1149.361 -640.505)" fill="#217277"/>
    <path id="Path_1404" data-name="Path 1404" d="M1363.369,853.57l-1.074-.7c-.341-.224-.758-.481-1.229-.828l-.751-.535c-.267-.185-.541-.388-.817-.609-.56-.433-1.166-.9-1.779-1.427s-1.255-1.082-1.912-1.661l-2-1.789-1.047-.887c-.356-.29-.722-.567-1.084-.853a27.146,27.146,0,0,0-2.275-1.536l-.578-.354-.592-.316c-.4-.2-.776-.428-1.169-.61-.792-.353-1.541-.736-2.291-1.009-.743-.289-1.438-.583-2.1-.792l-1.8-.607-1.409-.412-1.229-.359,1.244.3,1.429.347c.548.149,1.162.332,1.835.524s1.39.44,2.151.7c.768.24,1.542.59,2.36.911.407.165.8.374,1.215.564l.617.294.605.333a27.76,27.76,0,0,1,2.4,1.462c.382.274.771.541,1.148.82l1.105.852,2.093,1.7c.679.544,1.327,1.078,1.962,1.551.625.488,1.238.917,1.8,1.313.28.2.553.386.817.551l.744.48c.457.307.895.55,1.245.757l1.1.646a.693.693,0,1,1-.7,1.2A.149.149,0,0,0,1363.369,853.57Z" transform="translate(-1028.018 -602.055)" fill="#217277"/>
    <path id="Path_1405" data-name="Path 1405" d="M1283.37,885.174l.387-.152c.255-.092.616-.26,1.1-.413l.8-.268.951-.271c.682-.181,1.461-.358,2.318-.509.428-.076.879-.133,1.344-.2.467-.044.949-.113,1.448-.141,1-.085,2.049-.1,3.139-.1,2.179.018,4.5.2,6.8.432s4.6.474,6.75.609c1.074.06,2.113.106,3.095.106.491.008.968-.011,1.429-.015.46-.023.9-.036,1.33-.067.851-.059,1.626-.143,2.31-.238l.955-.147.8-.158c.487-.086.859-.2,1.117-.254l.394-.095.029-.007a.693.693,0,0,1,.325,1.348l-.025.005-.417.084c-.273.049-.669.15-1.182.222l-.846.133-1,.116c-.715.072-1.524.129-2.405.157-.441.015-.9.012-1.374.017-.473-.013-.964-.012-1.466-.039-1.005-.037-2.059-.124-3.146-.226-2.172-.218-4.466-.551-6.754-.865s-4.577-.583-6.733-.682c-1.077-.039-2.121-.061-3.109-.014-.495.009-.973.06-1.438.086-.462.05-.911.09-1.339.15-.856.118-1.635.264-2.32.419l-.957.234-.8.237c-.488.133-.856.289-1.114.371Z" transform="translate(-992.166 -631.355)" fill="#217277"/>
    <path id="Path_1406" data-name="Path 1406" d="M1145.586,478.232q-.269,0-.539-.026a.52.52,0,1,1,.1-1.034,5.407,5.407,0,0,0,4.493-1.967,9.942,9.942,0,0,0,2.4-5.749c.438-4.577-1.941-8.562-5.3-8.885a.52.52,0,0,1,.1-1.034c3.934.377,6.733,4.871,6.24,10.018a10.98,10.98,0,0,1-2.669,6.35A6.552,6.552,0,0,1,1145.586,478.232Z" transform="translate(-901.45 -354.499)" fill="#b82e41"/>
    <path id="Path_1407" data-name="Path 1407" d="M1162.2,468.672a.52.52,0,0,1-.238-.982c3.007-1.542,3.746-6.125,1.648-10.216s-6.251-6.166-9.257-4.624a.52.52,0,1,1-.474-.925c3.517-1.8,8.3.473,10.656,5.075s1.417,9.812-2.1,11.615A.517.517,0,0,1,1162.2,468.672Z" transform="translate(-907.343 -349.122)" fill="#b82e41"/>
    <path id="Path_1408" data-name="Path 1408" d="M830,447.641l1.85,1.178c.327.211.573.358.843.523l.8.491c.274.166.516.325.817.5l.872.51c.581.34,1.159.683,1.758,1.013l1.786,1,1.814.982c1.222.645,2.441,1.3,3.69,1.921s2.5,1.254,3.754,1.872,2.529,1.227,3.811,1.821,2.564,1.191,3.853,1.779,2.586,1.168,3.892,1.736c5.209,2.293,10.5,4.479,15.834,6.588q4,1.578,8.031,3.091l4.03,1.492s35.37-17.826,48.674-26.944l5.9,8.128c-14.111,12.193-47.654,37.451-47.654,37.451a9.548,9.548,0,0,1-7.3,1.31l-1.19-.29h0l-2.218-.607-2.165-.607-4.3-1.239q-4.293-1.257-8.562-2.587c-5.694-1.778-11.371-3.643-17.035-5.65-1.417-.5-2.831-1.014-4.246-1.529s-2.829-1.046-4.243-1.59-2.827-1.1-4.24-1.653-2.826-1.138-4.238-1.734-2.826-1.205-4.24-1.822l-2.121-.952-2.123-.988c-.707-.325-1.416-.675-2.125-1.022l-1.063-.52c-.347-.166-.737-.376-1.1-.561l-1.115-.576c-.368-.191-.763-.393-1.064-.558l-1.932-1.039a12.132,12.132,0,0,1,11.485-21.374q.386.207.75.438Z" transform="translate(-683.643 -345.48)" fill="#ff8f6b"/>
    <path id="Path_1409" data-name="Path 1409" d="M692.335,481.2c-.6-3.615-5.357-15.064,1.339-19.683s16.433-8.168,21.633-14.729l20.017-3.348s9.022-1.241,11.353-.769c2.827,2.827-12.564,28.218-12.564,28.218s-31.065,14.729-31.065,14.059S692.335,481.2,692.335,481.2Z" transform="translate(-604.424 -343.407)" fill="#ff8f6b"/>
    <path id="Path_1410" data-name="Path 1410" d="M936.546,522.419q6.215,2.145,12.454,4.1c-.606-11.148-.8-22.3-.8-22.3Z" transform="translate(-765.479 -383.709)" fill="#da4018"/>
    <path id="Path_1411" data-name="Path 1411" d="M920.136,686.7a.52.52,0,0,1-.34-.912c1.175-1.017,1.6-1.963,1.26-2.813-.86-2.16-6.13-3.6-8.013-3.52a.52.52,0,0,1-.046-1.038c1.8-.083,7.87,1.273,9.025,4.174.357.9.379,2.317-1.545,3.983A.515.515,0,0,1,920.136,686.7Z" transform="translate(-749.762 -497.556)" fill="#67a4c3"/>
    <path id="Path_1412" data-name="Path 1412" d="M772.6,719.55c-.167.982.736,4.8,7.465,6.606s3.622-12.067,3.622-12.067Z" transform="translate(-658.313 -520.878)" fill="#113a53"/>
    <ellipse id="Ellipse_200" data-name="Ellipse 200" cx="27.344" cy="3.916" rx="27.344" ry="3.916" transform="translate(223.834 448.322) rotate(-0.928)" fill="#e8c5b2"/>
    <path id="Path_1413" data-name="Path 1413" d="M856.312,673.432l-1.663-6.841s-31.708,5.284-29.19,11.042S856.312,673.432,856.312,673.432Z" transform="translate(-692.779 -489.833)" fill="#cc7f55"/>
    <path id="Path_1414" data-name="Path 1414" d="M695.329,739.124l3.421.5c2.257.313,5.605.788,9.983,1.328,8.753,1.084,21.622,2.5,38.056,3.436a510.028,510.028,0,0,0,59.314-.046c11.431-.7,23.572-1.862,36.27-3.759a319.966,319.966,0,0,0,39.5-8.306c6.763-1.916,13.593-4.135,20.384-6.808,3.393-1.341,6.779-2.789,10.123-4.391s6.653-3.344,9.867-5.289a74.844,74.844,0,0,0,9.245-6.513A39.826,39.826,0,0,0,939.17,701a21.767,21.767,0,0,0,2.5-4.972,15.117,15.117,0,0,0,.845-5.386,13.859,13.859,0,0,0-.363-2.7c-.034-.137-.036-.185-.075-.316l-.1-.362c-.065-.2-.123-.394-.2-.609a11.058,11.058,0,0,0-.535-1.236,16.042,16.042,0,0,0-3.391-4.387,38,38,0,0,0-9.885-6.314,89.951,89.951,0,0,0-11.391-4.29,198.1,198.1,0,0,0-24.361-5.593,493.314,493.314,0,0,0-51.5-5.6c-17.58-1.091-35.5-1.589-53.633-1.648q-13.6-.041-27.36.266t-27.614.973c-9.235.467-18.5,1.065-27.752,1.951-4.621.45-9.246.964-13.809,1.679-1.14.18-2.274.376-3.395.6-1.1.218-2.271.479-3.385.729q-3.386.768-6.735,1.7a98.608,98.608,0,0,0-13.052,4.553,57.237,57.237,0,0,0-6.1,3.091,31.585,31.585,0,0,0-5.4,3.919,16.374,16.374,0,0,0-2.13,2.365,8.632,8.632,0,0,0-1.328,2.6,4.488,4.488,0,0,0-.038,2.522,5.053,5.053,0,0,0,1.4,2.194,9.977,9.977,0,0,0,2.474,1.686,17.956,17.956,0,0,0,3,1.15,32.528,32.528,0,0,0,6.591,1.113,63.526,63.526,0,0,0,13.7-.659,105.788,105.788,0,0,0,13.556-2.967c2.237-.633,4.435-1.332,6.657-2.08,2.2-.742,4.407-1.526,6.6-2.328,4.388-1.607,8.747-3.3,13.083-5.048,8.672-3.494,17.251-7.19,25.751-11s16.92-7.733,25.257-11.747c33.333-16.084,65.448-33.377,95.584-51.658,15.065-9.145,29.627-18.549,43.554-28.22s27.193-19.647,39.567-30a319.183,319.183,0,0,0,33.9-32.447A182.723,182.723,0,0,0,993.447,495q3.1-4.5,5.759-9.166l.653-1.153.637-1.186c.422-.79.857-1.577,1.239-2.364s.8-1.565,1.171-2.361l1.113-2.385a109.5,109.5,0,0,0,9.531-38.818,98.936,98.936,0,0,0-4.514-35.8,88.037,88.037,0,0,0-14.985-28,83.229,83.229,0,0,0-9.762-10.292A86.121,86.121,0,0,0,974.01,355.6a90.165,90.165,0,0,0-10.142-5.708,92.886,92.886,0,0,0-9.477-3.971c-.375-.135-.745-.277-1.116-.4l-1.106-.363c-.731-.237-1.444-.48-2.149-.7l-2.082-.608-1.008-.294-.995-.257c-1.312-.337-2.56-.672-3.764-.923-1.2-.27-2.337-.53-3.423-.723-2.161-.439-4.089-.718-5.75-.985-1.667-.216-3.071-.4-4.2-.53l-3.44-.335,3.445.29c1.135.11,2.541.28,4.213.475,1.665.245,3.6.5,5.769.91,1.09.178,2.232.424,3.438.678,1.21.236,2.465.556,3.785.876l1,.245,1.015.282,2.1.583c.71.211,1.429.445,2.166.673l1.115.35c.374.122.747.259,1.125.39a93.1,93.1,0,0,1,9.574,3.865,90.748,90.748,0,0,1,10.271,5.633,86.9,86.9,0,0,1,10.451,7.816,84.092,84.092,0,0,1,9.977,10.29,88.584,88.584,0,0,1,15.447,28.208,100.38,100.38,0,0,1,4.91,36.277,110.643,110.643,0,0,1-9.384,39.518l-1.115,2.434c-.374.813-.788,1.616-1.182,2.428s-.816,1.6-1.233,2.395l-.628,1.191-.668,1.2q-2.665,4.755-5.781,9.353a184.892,184.892,0,0,1-13.835,17.818c-5.028,5.766-10.429,11.366-16.115,16.835s-11.651,10.815-17.843,16.057c-12.388,10.482-25.67,20.565-39.592,30.359s-28.513,19.269-43.591,28.5-30.662,18.189-46.638,26.887-32.347,17.134-49.064,25.2q-12.535,6.054-25.324,11.818c-8.527,3.831-17.136,7.553-25.855,11.08-4.36,1.763-8.747,3.475-13.178,5.1s-8.9,3.195-13.49,4.5a109.186,109.186,0,0,1-13.994,3.08,66.891,66.891,0,0,1-14.453.7,35.363,35.363,0,0,1-7.306-1.24,21.4,21.4,0,0,1-3.58-1.38,13.386,13.386,0,0,1-3.325-2.292,8.5,8.5,0,0,1-2.314-3.713,7.951,7.951,0,0,1,.037-4.439,12.032,12.032,0,0,1,1.85-3.664,19.8,19.8,0,0,1,2.581-2.87,34.937,34.937,0,0,1,5.99-4.356,60.584,60.584,0,0,1,6.468-3.275,101.917,101.917,0,0,1,13.513-4.707q3.434-.949,6.9-1.732c1.171-.262,2.288-.511,3.482-.747,1.176-.229,2.348-.431,3.519-.615,4.682-.73,9.351-1.244,14.016-1.7,9.329-.887,18.636-1.48,27.91-1.942,18.548-.911,36.964-1.253,55.157-1.148s36.166.66,53.819,1.805c8.826.576,17.57,1.3,26.215,2.241s17.19,2.083,25.6,3.572a200.948,200.948,0,0,1,24.7,5.8,92.68,92.68,0,0,1,11.73,4.485,52.853,52.853,0,0,1,5.529,3,32.222,32.222,0,0,1,5.046,3.855,18.727,18.727,0,0,1,3.929,5.161,13.811,13.811,0,0,1,.653,1.527c.1.255.182.539.267.818l.1.363c.033.109.073.308.1.415a16.531,16.531,0,0,1,.417,3.229,17.768,17.768,0,0,1-1.015,6.323,24.345,24.345,0,0,1-2.82,5.564,35.855,35.855,0,0,1-3.833,4.728,50,50,0,0,1-4.382,4.062,75.691,75.691,0,0,1-9.6,6.682c-3.312,1.974-6.7,3.731-10.115,5.335s-6.86,3.053-10.307,4.388c-6.9,2.661-13.811,4.854-20.645,6.739a318.71,318.71,0,0,1-39.816,8.079c-12.778,1.794-24.977,2.849-36.453,3.455a499.572,499.572,0,0,1-59.464-.541c-8.227-.551-15.557-1.228-21.922-1.922s-11.767-1.38-16.141-1.983-7.719-1.116-9.974-1.459l-3.414-.54a.173.173,0,0,1,.051-.343Z" transform="translate(-575.161 -276.243)" fill="#ffaa3f"/>
    <path id="Path_1415" data-name="Path 1415" d="M720.95,1474.648a.169.169,0,0,1-.039,0c-.161-.037-16.149-3.734-21.51-7.059a.173.173,0,1,1,.183-.294c5.312,3.295,21.244,6.979,21.4,7.016a.173.173,0,0,1-.038.342Z" transform="translate(-610.426 -1013.159)" fill="#ffaa3f"/>
    <path id="Path_1416" data-name="Path 1416" d="M1261.893,1328.5l.313-.26c.212-.179.449-.386.807-.732a15.434,15.434,0,0,0,2.573-3.278,12.64,12.64,0,0,0,1.191-2.683,9.185,9.185,0,0,0,.413-3.325,7.463,7.463,0,0,0-1.156-3.539,8.8,8.8,0,0,0-.594-.832l-.166-.2-.066-.081-.1-.108-.4-.433a19.6,19.6,0,0,0-1.7-1.505,43.941,43.941,0,0,0-9.1-5.14,107.161,107.161,0,0,0-11.142-4.095,215.91,215.91,0,0,0-25.219-6.015c-8.7-1.582-17.48-2.754-25.736-3.6s-15.992-1.362-22.63-1.662c-3.318-.151-6.362-.249-9.061-.317s-5.052-.1-6.991-.115l-4.5-.014-1.592,0,1.592-.031,4.5-.065c1.939-.014,4.294-.029,6.994-.006s5.748.065,9.072.159c6.647.185,14.4.571,22.688,1.27s17.109,1.726,25.874,3.162a217.269,217.269,0,0,1,25.5,5.615,108.789,108.789,0,0,1,11.4,3.968,45.793,45.793,0,0,1,9.627,5.231,21.222,21.222,0,0,1,1.976,1.7l.412.43.1.106.045.05.026.031.052.062.208.247c.141.161.271.331.4.5s.252.342.362.523a9.624,9.624,0,0,1,1.553,4.531,11.432,11.432,0,0,1-.444,4.147,14.93,14.93,0,0,1-1.358,3.195,17.8,17.8,0,0,1-2.91,3.825c-.381.383-.741.705-.937.874l-.309.265a1.212,1.212,0,1,1-1.577-1.842C1261.879,1328.5,1261.889,1328.5,1261.893,1328.5Z" transform="translate(-903.056 -897.591)" fill="#ffaa3f"/>
    <path id="Path_1417" data-name="Path 1417" d="M994.207,978.289c4.018-1.148,1.813-16.318,4.018-23.156C995.544,952.577,984.155,978.289,994.207,978.289Z" transform="translate(-800.505 -678.309)" fill="#113a53"/>
    <path id="Path_1418" data-name="Path 1418" d="M809.011,1010.5s19.112,5.354,17.882,2.944c-1.464-2.869-9.006-17.209-25.546-18.229l-3.922,7.2S805.339,1009.2,809.011,1010.5Z" transform="translate(-674.549 -704.624)" fill="#113a53"/>
    <path id="Path_1419" data-name="Path 1419" d="M807.274,688.085l.806-3.678c7.184-4.334,25.467-2.133,36.292-6.442l.515,1.479S837.315,686.338,827.9,688,807.274,688.085,807.274,688.085Z" transform="translate(-680.986 -497.268)" fill="#67a4c3"/>
    <path id="Path_1420" data-name="Path 1420" d="M711.224,913.921c-4.029,3.044,13.031,13.445,16.81,27.292C733.782,935.465,720.683,910.037,711.224,913.921Z" transform="translate(-617.807 -651.227)" fill="#113a53"/>
    <path id="Path_1421" data-name="Path 1421" d="M832.009,793.43l-37.1-8.565c-9.27,53.942,31.471,98.05,31.471,101.052s-2.72,20.9,6.055,36.833,54.555,73.377,54.555,73.377l12.53-12.657c-13.682-15.3-41.685-71.8-45.842-86.815S846.24,832.892,832.009,793.43Z" transform="translate(-672.008 -567.138)" fill="#ff8f6b"/>
    <path id="Path_1422" data-name="Path 1422" d="M1020.4,1311.338c-10.642-18.2-28.991-24.564-36.459-20.79l-.468-.927c4.094-2.069,10.909-1.274,17.786,2.074a48.35,48.35,0,0,1,20.039,19.119Z" transform="translate(-796.152 -896.307)" fill="#f65b2b"/>
    <path id="Path_1423" data-name="Path 1423" d="M1068.5,1357.1c-.086-.1-.174-.2-.26-.3h0c-6.586-1.3-14.2,1.728-16.167,8.032l3.9,4.924Z" transform="translate(-840.983 -940.765)" fill="#fff"/>
    <path id="Path_1424" data-name="Path 1424" d="M1094.145,1338.775a.52.52,0,0,1-.512-.437c-1.2-7.445,1.507-11.222,4.437-12.276a3.907,3.907,0,0,1,4.821,1.4c.536.914,1.79,4.325-4.565,9.853a.52.52,0,1,1-.682-.784c4.57-3.976,5.245-7.02,4.351-8.543a2.89,2.89,0,0,0-3.573-.945c-2.422.87-4.861,4.308-3.762,11.133a.52.52,0,0,1-.431.6C1094.2,1338.772,1094.172,1338.775,1094.145,1338.775Z" transform="translate(-867.962 -920.675)" fill="#f5ede7"/>
    <path id="Path_1425" data-name="Path 1425" d="M1073.8,1351.266a74.578,74.578,0,0,1,8.9-4.616c4.979-1.992,7.274-1.689,15.146-6.128l-11.761,10.993Z" transform="translate(-855.19 -930.319)" fill="#f63c4e"/>
    <path id="Path_1426" data-name="Path 1426" d="M1068.525,1376.058c-1.307-1.255-5.694-17.68-5.694-17.68s.346-6.466,5.643-8.371c5.934-2.134,12.5-1.93,18.258-6.986s5.254-2.078,5.254-2.078Z" transform="translate(-848.02 -930.025)" fill="#b82e41"/>
    <path id="Path_1427" data-name="Path 1427" d="M1127.92,1324.995c3.347-4.775,4.818-14.108,11.573-17.514s10.55-1.435,10.55-1.435Z" transform="translate(-890.563 -907.415)" fill="#f5ede7"/>
    <path id="Path_1428" data-name="Path 1428" d="M1079.12,1352.917c0,3.495,1.082,5.023,3.592,7.6,4.259-4.624,28.213-27.9,31.263-31.371,3.007-3.421,12.95-12.169,10.814-17.354-1.592-3.863-5.669-4.971-7.495-5.219-6.912-.94-15.479,10.142-23.67,22.717C1086.034,1340.946,1079.12,1350.635,1079.12,1352.917Z" transform="translate(-858.667 -908.094)" fill="#fff"/>
    <path id="Path_1429" data-name="Path 1429" d="M1082.712,1403.489c.9-.973,2.665-2.773,4.927-5.039l10.229-18.971-4.243-7.216c-7.592,11.656-14.507,21.346-14.505,23.627C1079.123,1399.385,1080.2,1400.912,1082.712,1403.489Z" transform="translate(-858.666 -951.065)" fill="#eedcd0"/>
    <path id="Path_1430" data-name="Path 1430" d="M1085.347,1409.389s.438.545,1.4,1.535c.9-.973,2.665-2.773,4.927-5.039l10.229-18.971-1.924-3.271C1095.756,1391.377,1084.412,1405.752,1085.347,1409.389Z" transform="translate(-862.701 -958.503)" fill="#b82e41"/>
    <path id="Path_1431" data-name="Path 1431" d="M1089,1366.18c0,3.495,7.274,2.194,11.316-2.194,4.259-4.624,7.192-12.057,10.456-14.346,4.034-2.829,10.755-5.851,13.834-9.295,6.322-7.072,12.542-22.631,3.623-23.843-6.912-.94-15.623,11.73-23.814,24.305C1096.822,1352.462,1089,1363.9,1089,1366.18Z" transform="translate(-865.125 -914.587)" fill="#5e1212"/>
    <path id="Path_1432" data-name="Path 1432" d="M1001.076,1311.816c-23.286,0-33.483-8.021-35.164-16.139-1.259-6.078,2.333-12.073,8.541-14.253,5.134-1.8,11.194-.761,17.064,2.933,7.183,4.52,13.791,12.634,19.64,24.115a.52.52,0,1,1-.926.472c-5.763-11.313-12.246-19.289-19.268-23.708-5.6-3.522-11.338-4.527-16.166-2.832-5.711,2.005-9.02,7.5-7.868,13.062,1.777,8.579,13.8,17.028,42.228,15.012a.52.52,0,0,1,.074,1.037Q1004.912,1311.821,1001.076,1311.816Z" transform="translate(-784.51 -891.129)" fill="#f5ede7"/>
    <path id="Path_1433" data-name="Path 1433" d="M952.614,1407.186a.519.519,0,0,1-.4-.182c-12.453-14.607-9.832-25.379-5.44-31.844,9.921-14.6,37.782-20.886,49.36-16.939a.52.52,0,1,1-.335.984c-11.3-3.853-38.481,2.284-48.165,16.54-6.007,8.842-4.149,19.418,5.372,30.585a.519.519,0,0,1-.4.857Z" transform="translate(-769.787 -941.131)" fill="#f5ede7"/>
    <path id="Path_1434" data-name="Path 1434" d="M1106.257,1356.788a.519.519,0,0,1-.483-.328,5.69,5.69,0,0,1,2.212-6.755.52.52,0,0,1,.564.873,4.582,4.582,0,0,0-1.81,5.5.52.52,0,0,1-.294.673A.485.485,0,0,1,1106.257,1356.788Z" transform="translate(-875.859 -936.267)" fill="#f5ede7"/>
    <path id="Path_1435" data-name="Path 1435" d="M1123.02,1350.753a.519.519,0,0,1-.491-.35,5.286,5.286,0,0,1,2.067-6.233.519.519,0,1,1,.543.886c-2.737,1.679-1.639,4.976-1.628,5.009a.519.519,0,0,1-.322.66A.569.569,0,0,1,1123.02,1350.753Z" transform="translate(-886.848 -932.653)" fill="#f5ede7"/>
    <path id="Path_1436" data-name="Path 1436" d="M880.9,1022.324c-.9-5.726-1.875-12.521-3.028-20l-38.636-4.164c2.383,4.457,4.782,8.462,7,11.941,6.372,4.606,21.44,11.589,34.667,12.223Z" transform="translate(-701.877 -706.549)" fill="#da4018"/>
    <path id="Path_1437" data-name="Path 1437" d="M1018.92,797.166c1.1-2.345,23.169-24.055,35.091-36.859,18.339-19.7,41.1-12.017,28.827,17.265-9.2,21.958-53.076,19.839-63.2,37.805Z" transform="translate(-819.32 -543.954)" fill="#113a53"/>
    <path id="Path_1438" data-name="Path 1438" d="M889.382,770.409s61.9,3.382,85.1,5.085,29.25,11.6,12.2,41.461c-14.664,25.671-32.652,51.719-44.308,79.4l-10.955-3.927c3.863-13.408,6.7-44.379,14.817-64.8,5.138-12.932,14.28-17.635,17.666-21.65-15.662,5.964-65.53,15.289-82.614.881S889.382,770.409,889.382,770.409Z" transform="translate(-725.478 -557.689)" fill="#ff8f6b"/>
    <path id="Path_1439" data-name="Path 1439" d="M1068.917,1038.1c-6.905-29.307,2.821-39.585,7.323-42.644a13.827,13.827,0,0,1,15.776-.232l-.594.852a12.8,12.8,0,0,0-14.6.239c-4.324,2.938-13.653,12.868-6.9,41.546Z" transform="translate(-850.428 -703.088)" fill="#f65b2b"/>
    <path id="Path_1440" data-name="Path 1440" d="M1051.1,1105.029q.577-1.256,1.17-2.508c-.7-.8-7.309-4.4-13.421-1.725,0,0-.953,4.578-1.633,6.942l5.99,2.147A47.235,47.235,0,0,0,1051.1,1105.029Z" transform="translate(-831.28 -772.997)" fill="#fff"/>
    <path id="Path_1441" data-name="Path 1441" d="M1047.868,781.621h0c-4.909-.328-10.635-.69-16.715-1.062-10.263,9.778-32.377,31.533-32.377,31.533a92.205,92.205,0,0,0,11.716,7.949,193.155,193.155,0,0,0,19.9-3.385C1030.434,800.3,1044.577,785.246,1047.868,781.621Z" transform="translate(-806.153 -564.323)" fill="#da4018"/>
    <path id="Path_1442" data-name="Path 1442" d="M982.177,719.67c-9.713-2.866-66.63,17.627-88.016-15.812L878.8,708.874c16.39,35.859,26.752,103.942,42.637,105.3C909.458,806.426,962.845,721.322,982.177,719.67Z" transform="translate(-727.736 -514.191)" fill="#67a4c3"/>
    <path id="Path_1443" data-name="Path 1443" d="M741.791,717.471c9.6-8.359,37.341-9.213,40.93-10.291,12.477,21.552,10.915,103.144,29.94,109.163-39.281,13.371-67.677-9.758-66.5-.557.375,2.93,7.26,6.452,7.26,6.452l.39,1.645c-3.868-1.329-20.775-8.9-23.547-13.947a8.665,8.665,0,0,1-1.079-3.589s-8.022-29.054-16.81-27.292C734.741,764.509,718.058,741.141,741.791,717.471Z" transform="translate(-618.96 -516.362)" fill="#67a4c3"/>
    <path id="Path_1444" data-name="Path 1444" d="M806.444,700.976a24.977,24.977,0,0,0-6.393,2.149c-1.221,1.182-3.828,11.516-3.828,11.516l5.869-3.335Z" transform="translate(-673.764 -512.307)" fill="#dd4f33"/>
    <path id="Path_1445" data-name="Path 1445" d="M829.854,719.425s.029.382.084,1.1c.027.358.061.8.1,1.318q.03.389.064.836c.03.288.078.575.12.888.086.624.181,1.315.284,2.067.127.757.31,1.584.479,2.465.149.888.432,1.8.674,2.786s.58,1.992.912,3.053l.255.8c.088.27.2.536.3.808l.624,1.659c.2.568.459,1.124.7,1.7l.754,1.74c1.113,2.313,2.327,4.747,3.8,7.157.7,1.227,1.5,2.419,2.274,3.653l1.235,1.82.625.916.653.9c1.721,2.433,3.6,4.82,5.514,7.187s3.912,4.671,5.889,6.935,3.967,4.461,5.888,6.594,3.78,4.2,5.515,6.18c.875.984,1.7,1.964,2.515,2.9s1.573,1.864,2.3,2.758,1.423,1.747,2.053,2.588l.932,1.216c.3.395.577.792.853,1.169l.794,1.1.707,1.046c.451.672.872,1.283,1.213,1.862l.937,1.526.64,1.158.532.963-.576-.938-.691-1.125-1-1.477c-.366-.559-.814-1.15-1.293-1.8l-.751-1.007-.841-1.058c-.292-.362-.583-.744-.9-1.123l-.982-1.166c-.663-.805-1.4-1.617-2.158-2.478s-1.575-1.729-2.411-2.637-1.719-1.832-2.636-2.773c-1.818-1.9-3.769-3.865-5.783-5.909s-4.1-4.158-6.2-6.331-4.2-4.413-6.253-6.714-4.064-4.639-5.937-7.044l-.709-.893-.683-.908-1.352-1.807c-.853-1.232-1.738-2.42-2.517-3.656a84.3,84.3,0,0,1-4.294-7.269l-.877-1.792c-.284-.591-.584-1.164-.823-1.754l-.741-1.724c-.119-.284-.247-.56-.354-.842l-.312-.841c-.406-1.112-.827-2.169-1.122-3.211s-.653-2.008-.86-2.953c-.228-.941-.46-1.812-.639-2.638-.154-.841-.3-1.614-.425-2.312-.061-.347-.129-.685-.175-.988s-.07-.574-.1-.832c-.063-.516-.117-.956-.161-1.312l-.134-1.092a2.252,2.252,0,1,1,4.471-.549C829.848,719.354,829.852,719.393,829.854,719.425Z" transform="translate(-692.805 -523.006)" fill="#376f92"/>
    <path id="Path_1446" data-name="Path 1446" d="M866.3,780.86l.725,1.174c.113.19.247.387.378.625l.423.769c.3.549.649,1.167,1,1.842l1.1,2.186c.4.77.774,1.6,1.174,2.46s.824,1.735,1.21,2.648l1.178,2.763c.408.919.757,1.865,1.116,2.787l1.048,2.711,1.663,4.874,1.394,4.822-1.67-4.725-1.937-4.751-1.2-2.633c-.41-.895-.81-1.811-1.268-2.7l-1.328-2.67c-.435-.882-.915-1.723-1.351-2.551s-.862-1.626-1.3-2.361l-1.207-2.088c-.381-.636-.746-1.2-1.06-1.706l-.442-.707c-.136-.219-.287-.416-.409-.6l-.792-1.129-.009-.013a.937.937,0,1,1,1.535-1.076C866.284,780.828,866.295,780.845,866.3,780.86Z" transform="translate(-718.435 -564.23)" fill="#376f92"/>
    <path id="Path_1447" data-name="Path 1447" d="M771.841,781.559l-.208.935c-.133.608-.354,1.518-.52,2.593-.209,1.076-.381,2.452-.577,4.024-.075.792-.153,1.634-.237,2.522q-.083,1.34-.176,2.813c-.033.984-.068,2.01-.1,3.071,0,1.064-.023,2.164-.017,3.3.027,2.265.087,4.657.231,7.132q.053.928.106,1.872.07.942.141,1.9c.086,1.274.213,2.561.331,3.86s.274,2.6.411,3.918c.165,1.31.313,2.628.5,3.943s.357,2.63.563,3.936.407,2.608.624,3.9.455,2.564.677,3.826c.245,1.257.476,2.5.73,3.722.5,2.44,1.022,4.792,1.562,7.011.261,1.112.551,2.184.812,3.227.288,1.035.546,2.042.83,3s.546,1.875.827,2.738c.266.869.548,1.684.812,2.449s.543,1.47.783,2.13c.263.649.51,1.244.742,1.777.253.523.458,1,.673,1.4s.4.737.56,1l.534.794-.57-.77c-.177-.258-.367-.593-.607-.979s-.461-.859-.739-1.373c-.257-.524-.531-1.111-.824-1.751-.27-.649-.591-1.342-.881-2.1s-.619-1.562-.925-2.422c-.321-.855-.63-1.763-.953-2.712s-.632-1.944-.968-2.971c-.309-1.034-.648-2.1-.96-3.2-.642-2.2-1.272-4.542-1.884-6.971-.31-1.214-.6-2.454-.9-3.707-.279-1.258-.585-2.528-.852-3.816s-.551-2.584-.8-3.893-.5-2.622-.744-3.938-.451-2.638-.677-3.952c-.2-1.319-.415-2.63-.592-3.937s-.365-2.6-.509-3.888q-.115-.964-.229-1.915-.1-.953-.192-1.893c-.258-2.5-.428-4.935-.559-7.246-.059-1.156-.09-2.283-.134-3.373-.012-1.093-.024-2.148-.035-3.162q.027-1.524.052-2.916c.045-.928.089-1.809.129-2.637.131-1.657.246-3.1.426-4.322.141-1.237.316-2.116.422-2.733l.166-.943a1.906,1.906,0,1,1,3.754.659c0,.026-.01.051-.015.076Z" transform="translate(-654.604 -563.459)" fill="#376f92"/>
    <path id="Path_1448" data-name="Path 1448" d="M756.916,919.111l-.255-1.686c-.074-.539-.2-1.181-.276-1.942s-.184-1.611-.29-2.543c-.075-.931-.157-1.941-.243-3.008-.06-1.069-.112-2.2-.158-3.362q-.015-.875-.03-1.777-.007-.45-.015-.906t.009-.914q.011-.918.021-1.848.033-.929.067-1.862c.033-1.243.137-2.482.208-3.7.106-1.219.194-2.419.326-3.575.113-1.159.26-2.274.39-3.333.148-1.057.278-2.056.426-2.975.277-1.84.55-3.367.736-4.436l.3-1.678s-.092.613-.253,1.686-.386,2.606-.61,4.452c-.122.921-.223,1.923-.341,2.981-.1,1.06-.215,2.176-.294,3.335-.1,1.157-.153,2.355-.224,3.571-.036,1.218-.1,2.453-.1,3.69q-.007.928-.014,1.852.016.923.031,1.837.008.456.017.908t.041.9q.04.893.079,1.762c.079,1.155.162,2.271.251,3.328.115,1.054.224,2.05.325,2.97l.355,2.491c.1.741.241,1.391.329,1.924l.3,1.678a.562.562,0,0,1-1.106.2S756.917,919.115,756.916,919.111Z" transform="translate(-647.244 -629.033)" fill="#376f92"/>
    <path id="Path_1449" data-name="Path 1449" d="M892.466,708.767l.814.914.444.5.535.654c.38.472.844,1.014,1.289,1.624s.979,1.277,1.5,2.029,1.1,1.552,1.677,2.433c1.182,1.744,2.424,3.759,3.75,5.971,1.3,2.225,2.682,4.649,4.049,7.259,1.389,2.6,2.758,5.385,4.142,8.281.669,1.459,1.375,2.929,2.031,4.444l1,2.279.977,2.317c.332.773.649,1.557.962,2.345l.947,2.367.909,2.392.455,1.2.432,1.207.864,2.413.816,2.425c.558,1.608,1.036,3.237,1.546,4.839.958,3.225,1.852,6.414,2.579,9.534l.544,2.318.477,2.288c.335,1.5.564,3,.831,4.439s.429,2.864.637,4.228c.157,1.372.308,2.7.436,3.971.088,1.278.193,2.5.256,3.664.036,1.166.07,2.272.1,3.311-.015,1.039-.028,2.012-.041,2.911,0,.45-.031.88-.057,1.291s-.051.8-.075,1.175c-.065,1.49-.248,2.65-.335,3.443l-.145,1.215s.037-.424.107-1.219.207-1.957.224-3.447q.018-.557.038-1.174c.014-.411.033-.84.016-1.288-.016-.9-.033-1.865-.052-2.9-.065-1.033-.134-2.132-.207-3.291-.1-1.156-.243-2.369-.371-3.635-.168-1.262-.36-2.574-.559-3.932-.25-1.35-.47-2.751-.766-4.179s-.585-2.9-.965-4.381l-.545-2.255-.614-2.284c-.82-3.073-1.807-6.208-2.859-9.376-.557-1.574-1.081-3.172-1.685-4.75l-.885-2.377-.933-2.365-.466-1.182-.488-1.173-.975-2.341-1.013-2.314c-.335-.77-.673-1.536-1.026-2.291l-1.04-2.263-1.066-2.223c-.7-1.478-1.441-2.911-2.148-4.332-1.459-2.819-2.9-5.527-4.349-8.045-1.429-2.53-2.862-4.871-4.208-7.012-1.368-2.125-2.645-4.058-3.845-5.711-.586-.839-1.162-1.6-1.695-2.3s-1.039-1.326-1.493-1.895-.871-1.034-1.229-1.453l-.5-.574-.459-.484-.842-.888,0,0a1.732,1.732,0,1,1,2.513-2.385C892.439,708.738,892.455,708.755,892.466,708.767Z" transform="translate(-734.691 -517.021)" fill="#376f92"/>
    <path id="Path_1450" data-name="Path 1450" d="M807.992,703.987c3.039-.9,10.164-.395,10.164-.395s3.315,3.619,3.21,6.023c-4.547,1.031-18.193,1.958-20.815,8.068.232-1.765,3.192-6.67,3.367-8.159C805.05,706.877,806.456,704.442,807.992,703.987Z" transform="translate(-676.592 -513.924)" fill="#113a53"/>
    <path id="Path_1451" data-name="Path 1451" d="M849.555,687.764c.793-3.416-6.472-5.528-6.472-5.528-7.181,4.962-29.078,5.773-32.1,6.668a2.572,2.572,0,0,0-.747.383h-.008l-.012.014c-2.692,1.945-4.882,9.388-5.705,11.867C808.523,694.276,828.641,699.474,849.555,687.764Z" transform="translate(-679.182 -500.059)" fill="#376f92"/>
    <path id="Path_1452" data-name="Path 1452" d="M747.382,702.591c-3.583,1.962-5.554,7.229-6.914,9.309s-3.493,3.86-4.922,6.509c-1.237,2.293-5.394,18.428-26.031,28.506,0,0,17.605-4.175,26.916-16.4C745.649,718.41,742.867,705.006,747.382,702.591Z" transform="translate(-617.09 -513.363)" fill="#113a53"/>
    <path id="Path_1453" data-name="Path 1453" d="M877.3,703.446c.771-.154,1.491-.329,2.035-.456l0,0-2.834-7.436C876.72,696.18,877.571,702.42,877.3,703.446Z" transform="translate(-726.234 -508.762)" fill="#113a53"/>
    <path id="Path_1454" data-name="Path 1454" d="M881.279,699.993l-3.745.52a52.317,52.317,0,0,0-2.19-10.005l3.4-.679A39.872,39.872,0,0,1,881.279,699.993Z" transform="translate(-725.477 -505.021)" fill="#67a4c3"/>
    <path id="Path_1455" data-name="Path 1455" d="M824.156,701.065c-.208,1.745.465,5.548,1.393,8.556l-1.662.411S823.633,701.39,824.156,701.065Z" transform="translate(-691.804 -512.366)" fill="#113a53"/>
    <path id="Path_1456" data-name="Path 1456" d="M813.184,711.252c-1.847-5.744-.039-12.129.026-12.458h3.567c-.391,1.986-.713,7.724.414,11.24Z" transform="translate(-684.308 -510.881)" fill="#67a4c3"/>
    <path id="Path_1457" data-name="Path 1457" d="M589.783,895.214c4.4,1.586,9.32,5.5,10.662,9.3-3.484-46.877,17.124-64.409,29.968-73.969C616.086,834.676,581.393,857.761,589.783,895.214Z" transform="translate(-537.988 -596.997)" fill="#376f92"/>
    <path id="Path_1464" data-name="Path 1464" d="M1189.4,828.123c-5.984-1.292-11.522.843-12.37,4.771s3.315,8.158,9.3,9.45a16.425,16.425,0,0,0,3.42.372,42.658,42.658,0,0,0,3.742-13.12A16.113,16.113,0,0,0,1189.4,828.123Z" transform="translate(-922.591 -595.165)" fill="#da4018"/>
    <path id="Path_1465" data-name="Path 1465" d="M927.474,1082.752a15.669,15.669,0,0,0,5.236-2.189c-.753-3.059-1.487-7.207-2.273-12.182a15.463,15.463,0,0,0-6.14.174c-5.974,1.337-10.106,5.6-9.228,9.52S921.5,1084.089,927.474,1082.752Z" transform="translate(-751.365 -752.296)" fill="#da4018"/>
    <path id="Path_1466" data-name="Path 1466" d="M737.311,450.555l-1.985-.658-5.8-1.893c-2.542-.816-5.681-1.81-9.395-2.9s-8-2.272-12.849-3.395a117.638,117.638,0,0,0-16.221-2.7,59.23,59.23,0,0,0-9.289-.115,36.722,36.722,0,0,0-4.831.674,24.714,24.714,0,0,0-4.777,1.483c-.393.156-.767.356-1.152.535-.371.205-.754.392-1.114.622a15.917,15.917,0,0,0-2.1,1.484,14.95,14.95,0,0,0-1.847,1.826l-.417.506-.389.531-.1.133a1.412,1.412,0,0,0-.082.117l-.183.292a2.409,2.409,0,0,0-.159.279l-.14.266a9.574,9.574,0,0,0-.733,5.12,19.056,19.056,0,0,0,1.459,5.337,38.065,38.065,0,0,0,6.372,9.794,68,68,0,0,0,8.973,8.508,112.249,112.249,0,0,0,22.555,13.641,180.47,180.47,0,0,0,26.59,9.733,257.083,257.083,0,0,0,29.269,6.352c10.107,1.617,20.513,2.767,31.125,3.556a505.238,505.238,0,0,0,65.607.27,590.3,590.3,0,0,0,67.323-7.723,491.246,491.246,0,0,0,65.822-15.848,323.635,323.635,0,0,0,31.02-11.668,189.661,189.661,0,0,0,28.4-15.206,110.838,110.838,0,0,0,12.434-9.5,68.815,68.815,0,0,0,10.257-11.243,47.317,47.317,0,0,0,3.866-6.362,39.838,39.838,0,0,0,2.69-6.788,34.05,34.05,0,0,0,1.272-7.069,32.113,32.113,0,0,0-.288-7.077,37.7,37.7,0,0,0-4.72-13.1,57.007,57.007,0,0,0-8.317-10.9,86.44,86.44,0,0,0-10.023-8.87,119.078,119.078,0,0,0-10.737-7.25,170.436,170.436,0,0,0-21.773-10.931c-7.145-3.017-14.092-5.488-20.7-7.569s-12.871-3.764-18.7-5.179-11.226-2.54-16.118-3.461c-9.79-1.822-17.553-2.878-22.853-3.515-2.65-.322-4.686-.532-6.058-.678l-2.081-.209,2.086.159c1.375.113,3.416.275,6.075.533,5.315.518,13.113,1.361,22.957,3.008a292.434,292.434,0,0,1,35.093,8.034c6.672,1.983,13.7,4.354,20.955,7.278a172.17,172.17,0,0,1,22.157,10.771,121.114,121.114,0,0,1,11.022,7.24,87.665,87.665,0,0,1,10.4,8.983,59.426,59.426,0,0,1,8.778,11.3,40.277,40.277,0,0,1,5.161,13.948,34.773,34.773,0,0,1,.383,7.662,36.792,36.792,0,0,1-1.3,7.655,42.644,42.644,0,0,1-2.82,7.311,50.084,50.084,0,0,1-4.028,6.765,71.756,71.756,0,0,1-10.633,11.791A113.84,113.84,0,0,1,1050,462.083a192.8,192.8,0,0,1-28.8,15.623,314.2,314.2,0,0,1-31.314,11.876c-10.716,3.471-21.662,6.489-32.731,9.156s-22.272,4.967-33.536,6.89a593.738,593.738,0,0,1-67.726,7.647,503.673,503.673,0,0,1-66.019-.611q-8.014-.633-15.862-1.578-7.841-.962-15.483-2.245a259.568,259.568,0,0,1-29.523-6.685A176.93,176.93,0,0,1,702.194,492a114.193,114.193,0,0,1-22.783-14.171,68.079,68.079,0,0,1-9.087-8.854,39.6,39.6,0,0,1-6.469-10.311,20.463,20.463,0,0,1-1.474-5.77,10.9,10.9,0,0,1,.952-5.83A16.884,16.884,0,0,1,671.72,440a25.617,25.617,0,0,1,5.011-1.483,37.806,37.806,0,0,1,4.98-.614,60.158,60.158,0,0,1,9.434.266,118.332,118.332,0,0,1,16.28,2.971c4.847,1.2,9.115,2.484,12.812,3.639s6.817,2.217,9.343,3.081l5.759,2Z" transform="translate(-586.248 -276.245)" fill="#ffba55"/>
    <rect id="Rectangle_346" data-name="Rectangle 346" width="27.991" height="3.117" transform="translate(178.637 384.98) rotate(-25.696)" fill="#ffaa3f"/>
    <path id="Path_1467" data-name="Path 1467" d="M1148.336,1093.66h0a.519.519,0,0,1-.518-.521c.05-14.875-5.441-24.273-15.879-27.179-16.828-4.684-41.875,8.374-48.089,18.751a.52.52,0,0,1-.892-.534c6.368-10.633,32.025-24.015,49.259-19.219,7.628,2.123,16.706,8.736,16.64,28.183A.518.518,0,0,1,1148.336,1093.66Z" transform="translate(-861.126 -749.553)" fill="#f5ede7"/>
    <path id="Path_1468" data-name="Path 1468" d="M1090.34,1121.7c.96.21,1.1.57,1.538,1.833a35.544,35.544,0,0,0,12.466,18.616c0,5.052-9.281-1.812-9.281-1.812Z" transform="translate(-866 -787.295)" fill="#b82e41"/>
    <path id="Path_1469" data-name="Path 1469" d="M1060.22,1105.05c1.29-.371,8.127-.124,9.445,2.4s2.306,15.815,13.4,24l-17.106-1.455Z" transform="translate(-846.314 -776.323)" fill="#f63c4e"/>
    <path id="Path_1470" data-name="Path 1470" d="M1011.6,1123.346c-.549-3.24,7.831-12.327,8.9-13.339,1.482-1.4,5.754-5.221,8.761-4.645,1.334.256,2.612,4.65,4.654,9.157,2.189,4.83,4.784,8.306,4.778,10.489-.011,3.837-4.037,6.477-4.037,6.477S1020.743,1132.488,1011.6,1123.346Z" transform="translate(-814.519 -776.579)" fill="#b82e41"/>
    <path id="Path_1471" data-name="Path 1471" d="M1064.81,1173.693c1.253.16,14.259-6,23.835-.093,6.1,3.759,4.225,7.763,4.225,7.763Z" transform="translate(-849.314 -819.541)" fill="#f5ede7"/>
    <path id="Path_1472" data-name="Path 1472" d="M1006.9,1162.946c-1.138-1.244,1.455-5.557,1.455-5.557s12.818,6.335,17.87,7.293,16.352.263,22.487,2.65c5.752,2.238,6.507,4.844,6.013,6.107a29.971,29.971,0,0,0-1.205,3.669l-30.185-7.389Z" transform="translate(-811.278 -810.622)" fill="#fff"/>
    <path id="Path_1473" data-name="Path 1473" d="M1054.89,1192.98c9.349,2.512,17.029,2.533,21.546,3.26,4.647.748,8.19,2.423,8.56,4.318.4,2.021-5.119,1.038-11.155-.6C1066.207,1197.892,1054.89,1192.98,1054.89,1192.98Z" transform="translate(-842.83 -833.885)" fill="#5e1212"/>
    <path id="Path_1474" data-name="Path 1474" d="M1027.9,1164.528c-6.824-1.353-19.549-7.145-19.549-7.145s-2.593,4.312-1.455,5.556l16.434,6.773,1.044.278C1025.187,1168.418,1027.9,1164.528,1027.9,1164.528Z" transform="translate(-811.274 -810.618)" fill="#f2d7d1"/>
    <path id="Path_1475" data-name="Path 1475" d="M1006.746,1167.97a2.129,2.129,0,0,0,.154,1.891l16.434,6.773,1.044.278c.215-.418.565-1,.963-1.629Z" transform="translate(-811.275 -817.538)" fill="#b82e41"/>
    <path id="Path_1476" data-name="Path 1476" d="M1054.37,1111.487h-.007c-8.53-.114-9.792-3.569-9.976-4.625a3.953,3.953,0,0,1,2.809-4.23c2.953-1.1,7.515.047,11.462,6.585a.52.52,0,1,1-.89.537c-3.622-6-7.762-7.063-10.208-6.149a2.937,2.937,0,0,0-2.149,3.079c.307,1.766,2.823,3.682,8.966,3.764a.52.52,0,0,1-.006,1.039Z" transform="translate(-835.933 -774.592)" fill="#f5ede7"/>
    <path id="Path_1477" data-name="Path 1477" d="M1082.263,1040.861a.52.52,0,0,1-.307-.939c23.338-17.081,26.979-31.758,22.6-39.8a12.2,12.2,0,0,0-15.294-5.348c-8.858,3.383-16.089,16.477-9.822,43.079a.52.52,0,0,1-1.011.238c-6.422-27.254,1.194-40.748,10.462-44.288a13.228,13.228,0,0,1,16.577,5.822c4.585,8.426.976,23.657-22.9,41.133A.5.5,0,0,1,1082.263,1040.861Z" transform="translate(-856.662 -703.083)" fill="#f5ede7"/>
    <path id="Path_1478" data-name="Path 1478" d="M1071.559,1128.454a.519.519,0,0,1-.306-.939c3.66-2.668,7.8-.6,7.972-.511a.52.52,0,0,1-.473.925c-.044-.022-3.754-1.858-6.887.425A.519.519,0,0,1,1071.559,1128.454Z" transform="translate(-853.385 -790.208)" fill="#f5ede7"/>
    <path id="Path_1479" data-name="Path 1479" d="M1079.069,1144.99a.519.519,0,0,1-.326-.924,6.908,6.908,0,0,1,7.8-.659.519.519,0,0,1-.554.879h0a5.766,5.766,0,0,0-6.593.589A.524.524,0,0,1,1079.069,1144.99Z" transform="translate(-858.294 -800.883)" fill="#f5ede7"/>
    <path id="Path_1480" data-name="Path 1480" d="M1072.939,1189.458l-1.442-2.764c.19-.1,19.079-9.957,25.624-13.566l1.505,2.73C1092.049,1179.485,1073.13,1189.361,1072.939,1189.458Z" transform="translate(-853.685 -820.909)" fill="#ffaa3f"/>
    <path id="Path_1481" data-name="Path 1481" d="M686.366,629.228c.8,3.528,17.519,6.56,31.277-3.081s1-19.282,1-19.282-25.567,9.312-29.048,12.526S686.178,628.4,686.366,629.228Z" transform="translate(-601.914 -450.796)" fill="#113a53"/>
    <path id="Path_1482" data-name="Path 1482" d="M1236.232,415.429l11.124,6.206a2.136,2.136,0,0,1-1.921,1.954c-1.786.162-9.611-3.937-9.611-3.937a9.7,9.7,0,0,1-4.723-.216C1229.876,415.435,1236.232,415.429,1236.232,415.429Z" transform="translate(-957.9 -325.672)" fill="#f65b2b"/>
    <path id="Path_1483" data-name="Path 1483" d="M1223.839,430.182s5.868,3.413,6.016,3.688-1.917,9.573-1.917,9.573-2.019.169-2.441-1.558a14.016,14.016,0,0,1,.208-4.728l-4.629-2.885Z" transform="translate(-951.451 -335.314)" fill="#f65b2b"/>
    <path id="Path_1484" data-name="Path 1484" d="M1215.908,458.349s.229,2.148-.621,3.07a43.676,43.676,0,0,1-5,3.454,2.525,2.525,0,0,1,.035-4A12.336,12.336,0,0,1,1215.908,458.349Z" transform="translate(-943.738 -353.725)" fill="#f65b2b"/>
    <path id="Path_1485" data-name="Path 1485" d="M1289.547,339.3l-85.327,41.525a1.386,1.386,0,1,1-1.213-2.492l.023-.011,86.071-39.96a.519.519,0,0,1,.446.938Z" transform="translate(-939.132 -275.269)" fill="#113a53"/>
    <path id="Path_1486" data-name="Path 1486" d="M1171.53,419.717c4.9-3.008,14.778-13.829,16.071-14.417s13.341-1.606,14.58-1.6,11.241,2.836,11.241,2.836a2.821,2.821,0,0,1-3.437,2.162c-2.985-.41-8.861-.918-9.25-.863s-6.838,1.857-6.838,1.857-1.9,4.059-3.419,5.08c-.235.627.886,1.778.886,1.778s9.1-2.059,12.022-1.031.646,3.09-1.331,3.673-8.406,2.316-9.785,3.25-4.554,3.545-7.6,4.311a59.913,59.913,0,0,1-7.233,1.092Z" transform="translate(-919.067 -318.005)" fill="#ff8f6b"/>
    <path id="Path_1487" data-name="Path 1487" d="M731.533,627.583a93.877,93.877,0,0,1-14.369-23.316s16.825-6.183,17.167-5.611l8.466,17.1Z" transform="translate(-622.09 -445.406)" fill="#cc7f55"/>
    <path id="Path_1488" data-name="Path 1488" d="M853.363,442.871s7.495-.107,12.072,1.85c14.133,6.045,19.019,13.813,29.2,13.813-.134,1.205-2.414,21.526-10.372,35.033-6.393,0-12.128-5.741-12.128-5.741Z" transform="translate(-711.11 -343.607)" fill="#f8c4b9"/>
    <path id="Path_1489" data-name="Path 1489" d="M910.362,521.707l-5.955,15.046,1.086,2.6s5.734,5.741,12.128,5.741a52.934,52.934,0,0,0,2.683-5.242C917.949,532.893,912.359,524.326,910.362,521.707Z" transform="translate(-744.473 -395.136)" fill="#f63c4e"/>
    <path id="Path_1490" data-name="Path 1490" d="M764.93,542.282c10.77,1.584,36.173-19.236,49.948-19.085,12.316.135,9.758,5.419,9.758,5.419s3.333-3.355.7-9.468c-3.008-6.991-13.945-9.761-11.708-24.39.8-5.215,7.13-11.481,4.2-21.523-2.549-8.743-10.746-8.4-24.94-30.361-8.7,21.96-32.047,31.1-32.047,31.1S768.695,531.471,764.93,542.282Z" transform="translate(-650.641 -343.609)" fill="#f2d7d1"/>
    <path id="Path_1491" data-name="Path 1491" d="M876.964,584.6l-.087.288-.1.346c-.044.135-.108.287-.173.459a5.4,5.4,0,0,1-.243.561l-.149.315-.182.326a11.935,11.935,0,0,1-.962,1.445,17.345,17.345,0,0,1-1.372,1.534c-.52.512-1.088,1.034-1.7,1.54-1.216,1.021-2.568,2.025-3.893,3.037s-2.625,2.035-3.766,3.058a31.6,31.6,0,0,0-2.921,2.942c-.389.458-.738.882-1.026,1.272s-.529.736-.731,1.017-.335.52-.437.674l-.153.239-.027.042a1.388,1.388,0,1,1-2.338-1.5,1.413,1.413,0,0,1,.083-.115l.2-.249c.131-.161.314-.4.563-.7s.55-.653.922-1.037.789-.818,1.262-1.269,1-.916,1.58-1.386,1.192-.947,1.844-1.415c1.3-.942,2.735-1.846,4.167-2.722s2.863-1.725,4.147-2.593c.645-.431,1.244-.876,1.8-1.318a16.762,16.762,0,0,0,1.474-1.339,11.648,11.648,0,0,0,1.073-1.3l.211-.3.176-.291a5.226,5.226,0,0,0,.295-.523c.081-.162.159-.3.218-.435l.139-.333C876.924,584.693,876.964,584.6,876.964,584.6Z" transform="translate(-713.149 -436.241)" fill="#f8c4b9"/>
    <path id="Path_1492" data-name="Path 1492" d="M770.477,582.727c2.925,9.758,15.5,21.117,15.052,20.7l-13.061,3.617C772.116,606.627,769.727,594.111,770.477,582.727Z" transform="translate(-656.841 -435.019)" fill="#f63c4e"/>
    <path id="Path_1493" data-name="Path 1493" d="M768.748,632.793c1.451,0,6.033-.375,7.437,1.767.968,1.477-6.108,4.554-6.108,4.554Z" transform="translate(-655.805 -467.726)" fill="#113a53"/>
    <path id="Path_1494" data-name="Path 1494" d="M711.164,501.148v4.615l.015.846.028,1.693c.012.567.011,1.125.032,1.7l.066,1.731.065,1.732.1,1.718.1,1.718c.035.573.091,1.135.136,1.7l.141,1.7c.051.565.119,1.122.177,1.684l.183,1.682.222,1.659c.134,1.116.327,2.193.5,3.285.08.551.2,1.074.294,1.611s.193,1.078.314,1.6l.348,1.568c.114.525.257,1.021.383,1.535l.195.765.216.74c.147.49.278,1,.443,1.467s.3.966.477,1.42.332.926.512,1.362c.357.878.726,1.733,1.121,2.5l.293.579.3.532.149.268.153.241c.1.157.2.334.3.48,0,0,49.367-13.258,55.989-16.8,1.389-.621,8.718,4.148,6.978,6.129-9.674,8.1-61.852,30.269-61.852,30.269h0a8.391,8.391,0,0,1-5.3.378l-.227-.059-.309-.079-.234-.066-.249-.075-.247-.079-.186-.064-.346-.125-.172-.065-.142-.057-.557-.235c-.177-.078-.324-.15-.487-.228s-.326-.157-.466-.232l-.422-.228-.416-.233-.379-.23c-.521-.313-.958-.622-1.414-.943-.423-.316-.847-.638-1.233-.961a29.816,29.816,0,0,1-3.91-3.963c-.282-.336-.529-.668-.793-1l-.389-.505-.357-.5-.708-1.01-.647-1.008c-.859-1.348-1.6-2.691-2.291-4.036-.349-.673-.651-1.339-.977-2.012s-.591-1.336-.886-2.007-.544-1.334-.81-2l-.391-1-.355-1c-.23-.663-.482-1.332-.691-1.993l-.632-1.988c-.216-.665-.385-1.32-.579-1.982s-.388-1.324-.546-1.98c-.332-1.314-.685-2.636-.965-3.945l-.443-1.969-.392-1.961c-.127-.653-.265-1.31-.383-1.962l-.339-1.955c-.11-.651-.232-1.306-.331-1.956l-.292-1.949-.287-1.95-.247-1.943-.246-1.945c-.081-.65-.143-1.32-.214-1.98l-.207-1.988-.1-.995-.081-.92-.324-3.678v0a12.136,12.136,0,1,1,24.177-2.129C711.148,500.431,711.163,500.8,711.164,501.148Z" transform="translate(-602.304 -373.764)" fill="#ff8f6b"/>
    <path id="Path_1495" data-name="Path 1495" d="M728.841,628.254c-.172-.453-.316-.95-.477-1.42s-.3-.976-.443-1.467l-.085-.289L707.15,629.24c.112.316.227.633.336.948l.355,1,.391,1c.266.668.509,1.33.81,2s.564,1.335.886,2.007.628,1.339.977,2.012q.323.626.663,1.251c4.536-5.108,15.967-9.553,17.786-9.84C729.173,629.179,729.015,628.7,728.841,628.254Z" transform="translate(-615.544 -462.7)" fill="#da4018"/>
    <path id="Path_1496" data-name="Path 1496" d="M712.335,531.283c-9.842,4.318-25.718,9.246-25.718,9.246,1.188,9.158-3.281,26.644-1.189,39.3-.837-4.486,29.1-17.262,35.928-11.6C713.219,554.645,712.335,531.283,712.335,531.283Z" transform="translate(-600.977 -401.395)" fill="#f2d7d1"/>
    <path id="Path_1497" data-name="Path 1497" d="M739.889,488.86a.6.6,0,0,1-.187-1.175l17.04-5.587a.6.6,0,0,1,.375,1.145l-17.04,5.587A.6.6,0,0,1,739.889,488.86Z" transform="translate(-636.549 -369.227)" fill="#f65b2b"/>
    <path id="Path_1498" data-name="Path 1498" d="M948.823,573.254c.206-2.8-2.044-21.078-1.905-21.833-4.321.138-5.067,6.463-5.5,14.427S948.616,576.049,948.823,573.254Z" transform="translate(-768.65 -414.556)" fill="#f65b2b"/>
    <path id="Path_1499" data-name="Path 1499" d="M928.61,616.266c4.5-.166,12.292-2.313,10.322-5.447-3.2-2.973-11.8-.032-11.8-.032Z" transform="translate(-759.329 -452.511)" fill="#ff8f6b"/>
    <path id="Path_1500" data-name="Path 1500" d="M892.479,528.278c2.45-1.917,5.514,1.766,5.514,1.766l11.949,17.386,6.528,10.279s-6.656,2.754-11.164-5.34C897.737,538.781,892.479,528.278,892.479,528.278Z" transform="translate(-736.677 -399.069)" fill="#ff8f6b"/>
    <path id="Path_1501" data-name="Path 1501" d="M920.805,552.487c1.118-.246,1.35-2.5,1.164-3.64l-2.194-13.038c-.3-2.48-1.684-5.77-4.683-4.6l3.094,19.724,1.85,3.463S920.766,552.5,920.805,552.487Z" transform="translate(-751.457 -401.186)" fill="#ff8f6b"/>
    <path id="Path_1502" data-name="Path 1502" d="M935.137,569.612l.4-6.99c.182-1.805-.62-4.378-2.931-4.03l-1.25,13.813,2.192-1.5Z" transform="translate(-762.089 -419.223)" fill="#ff8f6b"/>
    <path id="Path_1503" data-name="Path 1503" d="M931.2,601.757c-1.286-.688-1.761.779-1.365,1.674C932.9,606.283,931.2,601.757,931.2,601.757Z" transform="translate(-761.001 -447.341)" fill="#ff8f6b"/>
    <path id="Path_1504" data-name="Path 1504" d="M760.466,702.563a4.322,4.322,0,0,0-7.727-2.063l.084.051.416.233.422.228c.141.075.311.156.466.232s.31.149.487.228l.557.235.142.057.172.065.346.125.186.064.247.079.249.075.233.066.309.079.227.059A5.932,5.932,0,0,0,760.466,702.563Z" transform="translate(-645.342 -510.881)" fill="#da4018"/>
    <path id="Path_1505" data-name="Path 1505" d="M1032.75,579.524a5.185,5.185,0,0,0-4.017,1.9l.416.1a9.46,9.46,0,0,0,6.817-.992A6.8,6.8,0,0,0,1032.75,579.524Z" transform="translate(-825.734 -432.925)" fill="#da4018"/>
    <path id="Path_1506" data-name="Path 1506" d="M1278.727,165.307l4.441-.859-4.441-.859-.928-7.281-.928,7.281-4.441.859,4.441.859.928,7.281Z" transform="translate(-985.016 -156.308)" fill="#ffba55"/>
    <path id="Path_1507" data-name="Path 1507" d="M871.391,1414.9l4.439-.859-4.439-.859-.93-7.281-.929,7.281-4.44.859,4.44.859.929,7.281Z" transform="translate(-718.776 -973.051)" fill="#ffaa3f"/>
    <path id="Path_1508" data-name="Path 1508" d="M1704.976,235.541l8.726-1.689-8.726-1.688-1.825-14.307-1.826,14.307-8.726,1.688,8.726,1.689,1.826,14.307Z" transform="translate(-1259.642 -196.537)" fill="#ffba55"/>
    <path id="Path_1509" data-name="Path 1509" d="M570.41,720.9l8.724-1.688-8.724-1.689-1.826-14.307-1.827,14.307-8.724,1.689,8.724,1.688,1.827,14.307Z" transform="translate(-518.08 -513.771)" fill="#ffba55"/>
    <path id="Path_1510" data-name="Path 1510" d="M1922.355,718.137h0a.377.377,0,0,1-.374-.331l-.427-3.482a10.986,10.986,0,0,0-9.11-9.461l-.675-.109a.377.377,0,0,1,0-.745l.675-.109a10.986,10.986,0,0,0,9.11-9.461l.427-3.482a.377.377,0,0,1,.749,0l.442,3.6a10.872,10.872,0,0,0,8.961,9.436l.083.015a.377.377,0,0,1,0,.743l-.083.015a10.871,10.871,0,0,0-8.961,9.436l-.442,3.6A.378.378,0,0,1,1922.355,718.137Zm-8.577-13.755a11.753,11.753,0,0,1,8.525,9.851l.053.432.068-.552a11.613,11.613,0,0,1,8.1-9.731,11.614,11.614,0,0,1-8.1-9.731l-.068-.552-.053.432A11.756,11.756,0,0,1,1913.778,704.382Z" transform="translate(-1402.685 -505.542)" fill="#ffba55"/>
    <path id="Path_1511" data-name="Path 1511" d="M1193.954,603.389a.377.377,0,0,1-.375-.331l-.427-3.482a10.986,10.986,0,0,0-9.11-9.461l-.676-.109a.377.377,0,0,1,0-.745l.676-.109a10.987,10.987,0,0,0,9.11-9.461l.427-3.482a.377.377,0,0,1,.749,0l.442,3.6a10.873,10.873,0,0,0,8.962,9.436l.084.015a.377.377,0,0,1,0,.743l-.083.015a10.871,10.871,0,0,0-8.961,9.436l-.442,3.6A.378.378,0,0,1,1193.954,603.389Zm-8.577-13.755a11.753,11.753,0,0,1,8.525,9.851l.053.431.068-.551a11.613,11.613,0,0,1,8.1-9.73,11.614,11.614,0,0,1-8.1-9.731l-.068-.551-.053.431A11.756,11.756,0,0,1,1185.377,589.634Z" transform="translate(-926.596 -430.542)" fill="#ffba55"/>
    <path id="Path_1512" data-name="Path 1512" d="M453.6,1155.541a.377.377,0,0,1-.374-.331l-.427-3.482a10.984,10.984,0,0,0-9.11-9.461l-.676-.109a.377.377,0,0,1,0-.745l.676-.109a10.984,10.984,0,0,0,9.11-9.461l.427-3.482a.377.377,0,0,1,.374-.331h0a.377.377,0,0,1,.374.331l.442,3.6a10.872,10.872,0,0,0,8.962,9.436l.083.015a.377.377,0,0,1,0,.743l-.083.015a10.872,10.872,0,0,0-8.963,9.436l-.442,3.6A.377.377,0,0,1,453.6,1155.541Zm-8.578-13.759a11.751,11.751,0,0,1,8.525,9.85l.053.431.068-.551a11.614,11.614,0,0,1,8.1-9.73,11.613,11.613,0,0,1-8.1-9.73l-.068-.551-.053.431A11.748,11.748,0,0,1,445.019,1141.783Z" transform="translate(-442.693 -791.434)" fill="#ffba55"/>
    <path id="Path_1513" data-name="Path 1513" d="M1153.916,470.3a7.321,7.321,0,0,1-3.2-.785,10.987,10.987,0,0,1-4.825-4.915c-2.359-4.6-1.417-9.812,2.1-11.615a.52.52,0,0,1,.474.925c-3.007,1.542-3.746,6.125-1.648,10.216a9.942,9.942,0,0,0,4.355,4.455,5.4,5.4,0,0,0,4.9.169.52.52,0,1,1,.474.925A5.723,5.723,0,0,1,1153.916,470.3Z" transform="translate(-901.46 -350.18)" fill="#f63c4e"/>
    <path id="Path_1514" data-name="Path 1514" d="M1134.1,478.164l-.05,0c-3.934-.377-6.733-4.871-6.24-10.018a10.981,10.981,0,0,1,2.669-6.35,6.416,6.416,0,0,1,5.36-2.3.52.52,0,1,1-.1,1.034,5.407,5.407,0,0,0-4.493,1.967,9.941,9.941,0,0,0-2.4,5.749c-.438,4.577,1.941,8.563,5.3,8.885a.52.52,0,0,1-.049,1.037Z" transform="translate(-890.457 -354.455)" fill="#f63c4e"/>
    <path id="Path_1515" data-name="Path 1515" d="M807.849,270.574c7.389,4.7,15.114,19.114,7.389,30.992-5.354,8.232-9.238,4.767-9.238,4.767Z" transform="translate(-680.154 -230.994)" fill="#5e1212"/>
    <path id="Path_1516" data-name="Path 1516" d="M765.962,416.078c-.328,1.957-1.791,1.667-.348,7.126-4.961,9.215-21.454,7.891-21.454,7.891,3.621-3,1.213-15.775-1-20.608Z" transform="translate(-639.081 -322.442)" fill="#ff8f6b"/>
    <path id="Path_1517" data-name="Path 1517" d="M737.158,429.187c1.876-3.06.277-13.868-1.936-18.7l22.8,5.591c-.16.471-.746,1.955-.746,1.955-1.041,1.753-5.224,13.608-26.263,16.316C732.076,433.819,735.584,431.754,737.158,429.187Z" transform="translate(-631.142 -322.441)" fill="#da4018"/>
    <path id="Path_1518" data-name="Path 1518" d="M745.5,329.734c-2.214,2.617-15.8,7.283-28.489-8.972s-8.846-39.826,5.138-42.672c8.366-1.7,16.983,3.741,22.731,12.016a10.256,10.256,0,0,1,1.449,3.056C749.967,306.022,754.553,319.03,745.5,329.734Z" transform="translate(-616.946 -235.702)" fill="#ff8f6b"/>
    <path id="Path_1519" data-name="Path 1519" d="M710.606,284.055l9.051-5.939c7.676-1.378,11.621,4.342,17.241,11.551-3.536,3.5-.019,21.492-24.014,22.6C712.884,312.27,696.654,296.71,710.606,284.055Z" transform="translate(-614.103 -235.789)" fill="#da4018"/>
    <path id="Path_1520" data-name="Path 1520" d="M704.224,258.025c-12.712-4.873-21.452-.788-26.963,7.766-7.029,10.91,8.186,32.2,16.3,31,.724-10.62,5.366-17.493,8.578-19.718h0c-1.33,5.71-1.617,12.744-6.5,15.071,18.272,1.708,17.44-14.685,21.843-17.7,1.807,3.109,3.73,7.883,1.2,11.318C739.708,268.824,714.483,245.506,704.224,258.025Z" transform="translate(-594.83 -220.472)" fill="#5e1212"/>
    <path id="Path_1521" data-name="Path 1521" d="M706.9,369.639s-3.99-5.852-8.4-4.148c-8.375,3.237-.35,15.51,7.068,14.264,3.469-.583,3.951-4.77,3.951-4.77Z" transform="translate(-607.559 -292.828)" fill="#ff8f6b"/>
    <path id="Path_1522" data-name="Path 1522" d="M700.828,376.977l-.028-.115a3.069,3.069,0,0,1-.07-.337,4.175,4.175,0,0,1-.054-.552,4,4,0,0,1,.052-.719,3.523,3.523,0,0,1,.752-1.672,3.24,3.24,0,0,1,1.86-1.122,3.887,3.887,0,0,1,2.185.214,6,6,0,0,1,1.614.945c.214.167.393.335.554.482s.292.284.395.4l.325.362a.746.746,0,1,1-1.11,1,.736.736,0,0,1-.049-.061l-.02-.028-.246-.34c-.078-.109-.183-.229-.3-.374s-.257-.3-.417-.45a4.792,4.792,0,0,0-1.2-.89,2.861,2.861,0,0,0-1.586-.337,2.407,2.407,0,0,0-1.469.69,2.886,2.886,0,0,0-.755,1.3,3.474,3.474,0,0,0-.112.616,3.776,3.776,0,0,0,0,.484,2.656,2.656,0,0,0,.032.323l.015.117a.187.187,0,0,1-.366.068Z" transform="translate(-611.313 -297.538)" fill="#da4018"/>
    <path id="Path_1523" data-name="Path 1523" d="M713.692,378.374s-2.134-3.131-4.493-2.219c-4.481,1.732-.187,8.3,3.782,7.632,1.856-.312,2.114-2.552,2.114-2.552Z" transform="translate(-615.636 -299.893)" fill="#da4018"/>
    <path id="Path_1524" data-name="Path 1524" d="M742.487,250.822l.558-.666c.358-.427.877-1.051,1.535-1.779a28.435,28.435,0,0,1,2.4-2.374,18.47,18.47,0,0,1,3.176-2.25,12.816,12.816,0,0,1,3.639-1.348,11.718,11.718,0,0,1,1.759-.214c.281,0,.553-.009.815,0s.515.027.756.051l.688.089.612.12c.383.076.707.181.977.247l.829.277-.855-.161c-.275-.029-.605-.087-.987-.11l-.607-.034-.671.006c-.233.008-.475.034-.724.05s-.5.07-.765.1a10.907,10.907,0,0,0-1.6.422,11.693,11.693,0,0,0-3.123,1.671,20.354,20.354,0,0,0-4.484,4.906c-.518.761-.929,1.419-1.222,1.887l-.466.741a1.389,1.389,0,0,1-2.352-1.478,1.374,1.374,0,0,1,.106-.147Z" transform="translate(-638.427 -212.44)" fill="#5e1212"/>
    <path id="Path_1525" data-name="Path 1525" d="M751.522,250.944l.277-.187.335-.225.513-.326c.386-.238.828-.5,1.36-.784s1.127-.586,1.789-.892,1.388-.612,2.163-.909,1.6-.582,2.47-.837a29.535,29.535,0,0,1,5.542-1.112,22.552,22.552,0,0,1,2.877-.095,17.773,17.773,0,0,1,2.772.332,12.631,12.631,0,0,1,2.484.793l.283.121.27.141.524.277c.328.209.649.4.936.617a10.25,10.25,0,0,1,1.441,1.3c.187.22.367.419.521.613l.393.556a3.725,3.725,0,0,1,.292.461l.2.35.166.29-.2-.269-.238-.322a3.662,3.662,0,0,0-.34-.419l-.445-.5c-.172-.171-.37-.344-.573-.534a9.834,9.834,0,0,0-1.514-1.078c-.293-.17-.616-.316-.942-.474l-.517-.2-.264-.1-.276-.08a11.706,11.706,0,0,0-2.368-.461,16.485,16.485,0,0,0-2.581-.007,20.977,20.977,0,0,0-2.64.4,27.491,27.491,0,0,0-5,1.628c-.774.329-1.5.686-2.187,1.037s-1.312.714-1.88,1.062-1.078.68-1.514.99-.814.591-1.1.815l-.372.3-.3.26-.253.218h0a1.735,1.735,0,1,1-2.262-2.631A1.65,1.65,0,0,1,751.522,250.944Z" transform="translate(-644.046 -214.65)" fill="#5e1212"/>
    <path id="Path_1526" data-name="Path 1526" d="M779.5,257l.473-.037c.16-.011.309-.031.668-.034l.518-.005h.284l.147,0,.128.011c.345.033.735.057,1.141.112s.838.122,1.282.223.923.2,1.4.343l.74.213c.249.079.5.168.756.255a28.7,28.7,0,0,1,3.2,1.329,31.789,31.789,0,0,1,3.318,1.886,27.778,27.778,0,0,1,3.236,2.466,22.111,22.111,0,0,1,2.894,3.057l.328.416c.106.141.2.292.3.438.2.3.4.58.588.883l.525.92c.181.3.307.635.46.948l.218.475c.068.16.121.328.18.49.113.329.239.649.335.977a14.008,14.008,0,0,1,.412,1.98,13.149,13.149,0,0,1,.131,1.936c.011.315-.039.627-.056.933l-.037.456a2.658,2.658,0,0,1-.06.445,14.807,14.807,0,0,1-.886,3.191l-.291.686a4.88,4.88,0,0,1-.3.64l-.621,1.144c-.207.351-.431.661-.621.955s-.362.566-.542.795l-1.128,1.428.927-1.556c.146-.247.272-.541.428-.849s.325-.64.48-1l.451-1.178a4.555,4.555,0,0,0,.207-.646q.092-.334.188-.683a13.755,13.755,0,0,0,.429-3.036,2.173,2.173,0,0,0,0-.406c-.007-.136-.014-.273-.022-.41-.022-.274-.01-.552-.059-.829a11.451,11.451,0,0,0-.338-1.667,12.133,12.133,0,0,0-.575-1.645c-.119-.269-.267-.529-.4-.794-.07-.131-.13-.266-.206-.395l-.242-.38c-.168-.25-.3-.515-.5-.752l-.55-.723c-.19-.237-.4-.458-.6-.687-.1-.113-.2-.23-.307-.338l-.331-.32a19.077,19.077,0,0,0-2.842-2.3,24.252,24.252,0,0,0-3.087-1.765,27.684,27.684,0,0,0-3.073-1.246,24.254,24.254,0,0,0-2.828-.759l-.643-.127-.612-.089c-.4-.07-.767-.083-1.115-.121s-.658-.022-.951-.037c-.286,0-.536.024-.766.029l-.085,0-.06.011-.113.019-.2.027a3.629,3.629,0,0,0-.462.083l-.464.1-.015,0a2.778,2.778,0,1,1-1.15-5.435A3.128,3.128,0,0,1,779.5,257Z" transform="translate(-661.157 -222.07)" fill="#5e1212"/>
    <path id="Path_1527" data-name="Path 1527" d="M693,212.808l.345.015c.225.014.555.016.975.052.417.054.936.08,1.514.2a18.051,18.051,0,0,1,1.939.433,19.425,19.425,0,0,1,2.229.784c.385.168.786.335,1.176.543.2.1.4.2.6.305l.595.34c.407.22.788.493,1.193.745.385.277.789.545,1.168.849a25.128,25.128,0,0,1,2.224,1.942,27.843,27.843,0,0,1,1.983,2.2,26.286,26.286,0,0,1,1.682,2.343,23.876,23.876,0,0,1,2.318,4.627,17.606,17.606,0,0,1,.612,2.039,13.482,13.482,0,0,1,.287,1.675,9.514,9.514,0,0,1,.049,1.148c-.007.274-.011.42-.011.42a1.562,1.562,0,0,1-3.124-.08c0-.051,0-.1.011-.15l.013-.1s.011-.094.033-.269a6.369,6.369,0,0,0,.049-.8,10.49,10.49,0,0,0-.091-1.328,14.829,14.829,0,0,0-.341-1.77,21.484,21.484,0,0,0-1.657-4.351,24.344,24.344,0,0,0-1.329-2.315,26.155,26.155,0,0,0-1.636-2.235,23.719,23.719,0,0,0-1.9-2.031c-.328-.324-.681-.612-1.019-.912-.357-.275-.693-.573-1.057-.819l-.532-.381c-.179-.121-.362-.233-.54-.348-.353-.237-.718-.434-1.072-.634a18.859,18.859,0,0,0-2.071-.974,17.68,17.68,0,0,0-1.846-.613c-.557-.173-1.057-.248-1.466-.344-.412-.078-.742-.114-.964-.15Z" transform="translate(-606.296 -193.237)" fill="#5e1212"/>
    <path id="Path_1528" data-name="Path 1528" d="M655.907,266.893l-.389.1-.477.119-.56.159a24.156,24.156,0,0,0-3.706,1.422,28.018,28.018,0,0,0-5.323,3.361A36.919,36.919,0,0,0,639.569,278a51.781,51.781,0,0,0-5.455,8.514,68.452,68.452,0,0,0-4.348,10.582,78.9,78.9,0,0,0-2.807,11.994c-.316,2.079-.558,4.188-.705,6.311-.074,1.062-.13,2.127-.155,3.194-.018.526-.019,1.085-.026,1.583l0,.818.024.766a42.718,42.718,0,0,0,2.492,12.325,49.3,49.3,0,0,0,5.543,11,45.219,45.219,0,0,0,7.6,8.712,39.19,39.19,0,0,0,8.625,5.795,36.992,36.992,0,0,0,8.331,2.917c1.291.278,2.514.471,3.651.612,1.139.12,2.19.209,3.141.233a41.868,41.868,0,0,0,4.423-.084l1.563-.14-1.556.207a41.911,41.911,0,0,1-4.433.274c-.959.017-2.02-.027-3.175-.1-1.153-.093-2.4-.234-3.721-.461a37.749,37.749,0,0,1-8.619-2.61,40.36,40.36,0,0,1-9.127-5.581,46.875,46.875,0,0,1-8.256-8.682,51.456,51.456,0,0,1-6.272-11.228,45.407,45.407,0,0,1-3.2-13.005l-.063-.869-.04-.819c-.017-.594-.033-1.125-.035-1.69-.013-1.114,0-2.227.041-3.337.073-2.22.245-4.426.5-6.607a82.593,82.593,0,0,1,2.483-12.659,72.6,72.6,0,0,1,4.206-11.386,56.3,56.3,0,0,1,5.6-9.473,41.834,41.834,0,0,1,6.42-6.966,33.24,33.24,0,0,1,6.159-4.2c.927-.484,1.778-.878,2.535-1.184.377-.157.729-.3,1.056-.411s.621-.228.909-.317l.736-.235.472-.136.385-.111A2.772,2.772,0,0,1,656,266.867C655.976,266.876,655.936,266.886,655.907,266.893Z" transform="translate(-560.522 -225.017)" fill="#5e1212"/>
    <path id="Path_1529" data-name="Path 1529" d="M726.274,409l.433.9c.073.156.144.289.223.44l.257.5c.2.36.433.8.714,1.259a24.919,24.919,0,0,0,2.228,3.167,20.323,20.323,0,0,0,1.6,1.726,18.905,18.905,0,0,0,1.98,1.684,21.748,21.748,0,0,0,5.22,2.835,35.545,35.545,0,0,0,6.761,1.775c2.458.428,5.086.708,7.8,1.014a82.346,82.346,0,0,1,8.345,1.256,29,29,0,0,1,8.148,2.964,21.4,21.4,0,0,1,1.827,1.156l.437.312.418.319c.283.223.576.465.838.7a16.531,16.531,0,0,1,2.785,3.176,15.072,15.072,0,0,1,2.532,7.442,16.107,16.107,0,0,1-1.087,6.838,19.039,19.039,0,0,1-2.895,4.986,22.7,22.7,0,0,1-3.075,3.15,26.215,26.215,0,0,1-2.251,1.7c-.268.184-.479.315-.62.406l-.214.137.2-.152c.134-.1.334-.247.587-.45a25.916,25.916,0,0,0,2.1-1.846,22.275,22.275,0,0,0,2.776-3.3,18.226,18.226,0,0,0,2.41-4.961,14.827,14.827,0,0,0,.538-6.349,13.256,13.256,0,0,0-2.7-6.372,14.31,14.31,0,0,0-2.608-2.559c-.252-.192-.489-.358-.746-.533l-.4-.264-.406-.244a18.77,18.77,0,0,0-1.684-.888,26,26,0,0,0-7.5-2.068,79.037,79.037,0,0,0-8.047-.567c-2.71-.092-5.43-.164-8.112-.416a40.478,40.478,0,0,1-7.816-1.42,27.276,27.276,0,0,1-6.774-3.023,24.736,24.736,0,0,1-2.717-1.961,26.3,26.3,0,0,1-2.219-2.043,31.152,31.152,0,0,1-3.1-3.732c-.393-.545-.71-1.034-1-1.478l-.392-.631c-.12-.194-.232-.374-.307-.506l-.5-.858a3.411,3.411,0,1,1,5.888-3.445C726.192,408.841,726.237,408.926,726.274,409Z" transform="translate(-623.808 -320.213)" fill="#5e1212"/>
    <path id="Path_1530" data-name="Path 1530" d="M793.415,383.327s.362-.012.919-.051,1.293-.1,2.027-.194c.368-.047.732-.1,1.073-.166s.654-.139.919-.218c.129-.045.253-.079.355-.123s.192-.085.264-.122l.21-.145-.175.193c-.063.054-.144.113-.237.186s-.208.132-.33.21c-.249.143-.548.291-.875.438s-.68.286-1.036.419c-.712.267-1.435.5-1.981.671s-.917.27-.917.27l-.008,0a.7.7,0,0,1-.368-1.347A.779.779,0,0,1,793.415,383.327Z" transform="translate(-671.488 -304.024)" fill="#f65b2b"/>
    <ellipse id="Ellipse_201" data-name="Ellipse 201" cx="2.198" cy="2.198" rx="2.198" ry="2.198" transform="translate(98.069 84.182)" fill="#ffba55"/>
    <ellipse id="Ellipse_202" data-name="Ellipse 202" cx="2.198" cy="2.198" rx="2.198" ry="2.198" transform="translate(97.261 89.725)" fill="#ffba55"/>
    <ellipse id="Ellipse_203" data-name="Ellipse 203" cx="2.198" cy="2.198" rx="2.198" ry="2.198" transform="translate(95.871 95.581)" fill="#ffba55"/>
  </g>
</svg>
